<?xml version="1.0" encoding="utf-8"?>
<!-- Generator: Adobe Illustrator 24.0.0, SVG Export Plug-In . SVG Version: 6.00 Build 0)  -->
<svg version="1.1" id="Layer_1" xmlns="http://www.w3.org/2000/svg" xmlns:xlink="http://www.w3.org/1999/xlink" x="0px" y="0px"
	 viewBox="0 0 512 512" enable-background="new 0 0 512 512" xml:space="preserve">
<g>
	<g>
		<path fill="#2364A5" d="M400,464H144c-44.183,0-80-35.817-80-80V128c0-44.183,35.817-80,80-80h256c44.183,0,80,35.817,80,80v256
			C480,428.183,444.183,464,400,464z"/>
	</g>
	<g>
		<path fill="#4182C3" d="M368,464H112c-44.183,0-80-35.817-80-80V128c0-44.183,35.817-80,80-80h256c44.183,0,80,35.817,80,80v256
			C448,428.183,412.183,464,368,464z"/>
	</g>
	<g>
		<g>
			<path fill="#D7E6F0" d="M176,352h-32c-4.418,0-8-3.582-8-8V184c0-4.418,3.582-8,8-8h32c4.418,0,8,3.582,8,8v160
				C184,348.418,180.418,352,176,352z"/>
		</g>
		<g>
			<path fill="#D7E6F0" d="M312,176L312,176c-20.373,0-38.202,10.882-48,27.148V184c0-4.418-3.582-8-8-8h-32c-4.418,0-8,3.582-8,8
				v160c0,4.418,3.582,8,8,8h32c4.418,0,8-3.582,8-8v-91.418c0-15.257,11.962-28.154,27.213-28.572
				C307.036,223.577,320,236.275,320,252v92c0,4.418,3.582,8,8,8h32c4.418,0,8-3.582,8-8V232C368,201.072,342.928,176,312,176z"/>
		</g>
		<g>
			<circle fill="#D7E6F0" cx="160" cy="136" r="24"/>
		</g>
	</g>
</g>
</svg>
