<?xml version="1.0" encoding="utf-8"?>
<!-- Generator: Adobe Illustrator 24.0.0, SVG Export Plug-In . SVG Version: 6.00 Build 0)  -->
<svg version="1.1" id="Layer_1" xmlns="http://www.w3.org/2000/svg" xmlns:xlink="http://www.w3.org/1999/xlink" x="0px" y="0px"
	 viewBox="0 0 512 512" enable-background="new 0 0 512 512" xml:space="preserve">
<g>
	<g>
		<path fill="#E1322D" d="M400,416H144c-53.019,0-96-42.981-96-96V192c0-53.019,42.981-96,96-96h256c53.019,0,96,42.981,96,96v128
			C496,373.019,453.019,416,400,416z"/>
	</g>
	<g>
		<path fill="#F04B37" d="M368,416H112c-53.019,0-96-42.981-96-96V192c0-53.019,42.981-96,96-96h256c53.019,0,96,42.981,96,96v128
			C464,373.019,421.019,416,368,416z"/>
	</g>
	<path fill="#D7E6F0" d="M324.275,249.238l-128-80.939c-2.466-1.559-5.583-1.652-8.135-0.246c-2.555,1.407-4.141,4.092-4.141,7.007
		v161.878c0,2.916,1.586,5.601,4.141,7.007c1.203,0.663,2.532,0.993,3.859,0.993c1.487,0,2.973-0.415,4.275-1.238l128-80.939
		c2.319-1.466,3.725-4.018,3.725-6.762S326.595,250.705,324.275,249.238z"/>
</g>
</svg>
