<?xml version="1.0" encoding="utf-8"?>
<!-- Generator: Adobe Illustrator 24.0.0, SVG Export Plug-In . SVG Version: 6.00 Build 0)  -->
<svg version="1.1" id="Layer_1" xmlns="http://www.w3.org/2000/svg" xmlns:xlink="http://www.w3.org/1999/xlink" x="0px" y="0px"
	 viewBox="0 0 512 512" enable-background="new 0 0 512 512" xml:space="preserve">
<g>
	<g>
		<path fill="#F04B37" d="M486.758,358.865c-0.05-0.108-0.1-0.217-0.151-0.324L344.171,61.449c-0.051-0.105-0.103-0.21-0.155-0.314
			C330.715,33.704,302.487,16,272,16c-5.43,0-26.57,0-32,0c-30.487,0-58.715,17.704-72.016,45.135
			c-0.053,0.104-0.104,0.208-0.155,0.314L25.394,358.541c-0.052,0.107-0.102,0.216-0.151,0.324C19.109,371.777,16,385.615,16,400
			c0,52.935,43.065,96,96,96c5.612,0,26.894,0,32,0c36.835,0,76.163-16.911,112-47.408C291.837,479.089,331.165,496,368,496
			c5.106,0,26.388,0,32,0c52.935,0,96-43.065,96-96C496,385.615,492.891,371.777,486.758,358.865z M192,272
			c0-0.827,0.021-1.65,0.063-2.467C192.038,270.354,192,271.173,192,272z M224,272c0-20.858,13.377-38.643,32-45.248
			c18.623,6.605,32,24.389,32,45.248c0,26.033-12.008,59.268-32,90.89C236.008,331.268,224,298.033,224,272z M319.938,269.533
			c0.042,0.817,0.063,1.64,0.063,2.467C320,271.173,319.962,270.354,319.938,269.533z M293.454,410.056
			C329.718,365.431,352,313.156,352,272c0-44.112-35.888-80-80-80c-5.478,0-26.522,0-32,0c-44.112,0-80,35.888-80,80
			c0,41.156,22.282,93.431,58.546,138.056c-28.36,28.688-59.476,46.956-88.911,52.299C101.242,455.814,80,430.35,80,400
			c0-9.678,2.104-18.972,6.252-27.624c0.047-0.099,0.093-0.197,0.138-0.296L228.549,75.566c0.047-0.093,0.093-0.188,0.139-0.282
			c5.555-11.586,15.536-20.3,27.313-24.5c11.776,4.2,21.758,12.914,27.313,24.5c0.046,0.095,0.092,0.189,0.139,0.282L425.61,372.081
			c0.045,0.099,0.091,0.197,0.138,0.296C429.896,381.028,432,390.322,432,400c0,30.35-21.242,55.814-49.635,62.354
			C352.93,457.012,321.814,438.743,293.454,410.056z"/>
	</g>
	<g>
		<path fill="#F5826E" d="M368,496c-42.405,0-88.118-22.4-128-62.157C200.118,473.6,154.405,496,112,496c-52.935,0-96-43.065-96-96
			c0-14.385,3.109-28.223,9.242-41.135c0.05-0.108,0.1-0.217,0.151-0.324L167.829,61.449c0.051-0.106,0.104-0.212,0.156-0.316
			C181.287,33.704,209.515,16,240,16s58.713,17.704,72.015,45.133c0.053,0.104,0.105,0.21,0.156,0.316l142.436,297.091
			c0.052,0.107,0.102,0.216,0.151,0.324C460.891,371.777,464,385.615,464,400C464,452.935,420.935,496,368,496z M261.454,410.056
			C295.556,444.551,333.644,464,368,464c35.29,0,64-28.71,64-64c0-9.678-2.104-18.972-6.252-27.624
			c-0.047-0.099-0.093-0.197-0.138-0.296L283.452,75.568c-0.047-0.094-0.094-0.188-0.14-0.284C275.366,58.71,258.365,48,240,48
			s-35.366,10.71-43.313,27.284c-0.046,0.095-0.093,0.19-0.14,0.284L54.39,372.081c-0.045,0.099-0.091,0.197-0.138,0.296
			C50.104,381.028,48,390.322,48,400c0,35.29,28.71,64,64,64c34.356,0,72.444-19.449,106.546-53.944
			C182.282,365.431,160,313.156,160,272c0-44.112,35.888-80,80-80s80,35.888,80,80C320,313.156,297.718,365.431,261.454,410.056z
			 M240,224c-26.468,0-48,21.533-48,48c0,32.387,18.572,75.921,48,113.626c29.428-37.705,48-81.24,48-113.626
			C288,245.533,266.468,224,240,224z"/>
	</g>
</g>
</svg>
