<?xml version="1.0" encoding="utf-8"?>
<!-- Generator: Adobe Illustrator 24.0.0, SVG Export Plug-In . SVG Version: 6.00 Build 0)  -->
<svg version="1.1" id="Layer_1" xmlns="http://www.w3.org/2000/svg" xmlns:xlink="http://www.w3.org/1999/xlink" x="0px" y="0px"
	 viewBox="0 0 512 512" enable-background="new 0 0 512 512" xml:space="preserve">
<g>
	<g>
		<path fill="#463C4B" d="M379.84,314.45l-3.84-5.12c-10.39-13.84-16-30.69-16-48V160c0-44.18-35.82-80-80-80h-80
			c-44.18,0-80,35.82-80,80v8c0,4.42,3.58,8,8,8h80c4.42,0,8-3.58,8-8v-8c0-13.425,8.276-24.915,20-29.664
			c11.724,4.749,20,16.239,20,29.664v32h-48c-53.02,0-96,42.98-96,96v8c0,35.35,28.65,64,64,64h22.86
			c1.612,0,3.217-0.065,4.817-0.162c1.43,0.096,2.869,0.162,4.323,0.162h22.86c17.684,0,34.752-5.873,48.635-16.505l18.845,18.845
			c1.565,1.565,3.612,2.348,5.66,2.348h32c2.047,0,4.095-0.783,5.66-2.348l37.43-37.43C381.91,322.09,382.23,317.63,379.84,314.45z
			 M225.37,302.63c-5.79-5.79-9.37-13.79-9.37-22.63c0-25.368,16.87-46.783,40-53.668V272c0,11.04-4.48,21.04-11.72,28.28
			c-3.271,3.271-7.108,5.971-11.347,7.957C230.139,306.743,227.591,304.851,225.37,302.63z"/>
	</g>
	<g>
		<path fill="#555A6E" d="M347.84,314.45l-3.84-5.12c-10.39-13.84-16-30.69-16-48V160c0-44.18-35.82-80-80-80h-48
			c-44.18,0-80,35.82-80,80v8c0,4.42,3.58,8,8,8h48c4.42,0,8-3.58,8-8v-8c0-17.67,14.33-32,32-32h8c17.67,0,32,14.33,32,32v32h-48
			c-53.02,0-96,42.98-96,96v8c0,35.35,28.65,64,64,64h22.86c21.22,0,41.57-8.43,56.57-23.43L264,328l34.34,34.34
			c3.13,3.13,8.19,3.13,11.32,0l37.43-37.43C349.91,322.09,350.23,317.63,347.84,314.45z M256,272c0,11.04-4.48,21.04-11.72,28.28
			C237.04,307.52,227.04,312,216,312c-8.84,0-16.84-3.58-22.63-9.37S184,288.84,184,280c0-30.93,25.07-56,56-56h16V272z"/>
	</g>
	<path fill="#F06423" d="M490.343,361.915C488.187,358.25,484.252,356,480,356H368c-6.627,0-12,5.373-12,12s5.373,12,12,12h59.605
		l-4.818,8.673c-1.245-0.435-2.577-0.673-3.955-0.673h-32c-1.729,0-3.439,0.374-5.011,1.097
		c-39.778,18.282-82.017,28.529-125.78,30.537c-64.703-2.98-126.482-24.07-179.559-61.445C74.46,356.764,72.047,356,69.574,356h-32
		c-5.231,0-9.86,3.389-11.44,8.376c-1.58,4.987,0.253,10.423,4.531,13.435C92.157,421.112,164.544,444,240,444
		c5.367,0,10.713-0.114,16.04-0.343C261.345,443.886,266.662,444,272,444c46.525,0,91.595-8.593,134.251-25.563l-8.742,15.735
		c-2.064,3.717-2.009,8.249,0.147,11.913S403.748,452,408,452h32c4.358,0,8.373-2.363,10.49-6.172l40-72
		C492.555,370.111,492.499,365.579,490.343,361.915z"/>
	<g>
		<path fill="#FAA019" d="M407.989,452.002c-1.973,0-3.971-0.486-5.817-1.512c-5.793-3.218-7.88-10.524-4.662-16.317L427.605,380
			H368c-6.627,0-12-5.373-12-12s5.373-12,12-12h80c4.252,0,8.187,2.25,10.343,5.915s2.212,8.196,0.147,11.913l-40,72
			C416.297,449.775,412.206,452.002,407.989,452.002z"/>
	</g>
	<g>
		<path fill="#FAA019" d="M240,444c-75.456,0-147.843-22.888-209.335-66.188c-5.418-3.815-6.718-11.302-2.902-16.72
			c3.816-5.419,11.302-6.718,16.721-2.903C101.909,398.626,169.518,420,240,420c49.488,0,97.203-10.397,141.82-30.904
			c6.023-2.768,13.147-0.129,15.915,5.893c2.768,6.022,0.13,13.147-5.892,15.915C344.06,432.865,292.973,444,240,444z"/>
	</g>
</g>
</svg>
