<?xml version="1.0" encoding="utf-8"?>
<!-- Generator: Adobe Illustrator 24.0.0, SVG Export Plug-In . SVG Version: 6.00 Build 0)  -->
<svg version="1.1" id="Layer_1" xmlns="http://www.w3.org/2000/svg" xmlns:xlink="http://www.w3.org/1999/xlink" x="0px" y="0px"
	 viewBox="0 0 512 512" enable-background="new 0 0 512 512" xml:space="preserve">
<g>
	<g>
		<path fill="#5FAA46" d="M468,173.333h-32c-8.917,0-16.853,4.173-21.981,10.667H137.981c-5.128-6.494-13.065-10.667-21.981-10.667
			H84c-15.464,0-28,12.536-28,28V324c0,15.464,12.536,28,28,28h32c4.295,0,8.363-0.97,12-2.698V368c0,17.673,14.327,32,32,32h24v68
			c0,15.464,12.536,28,28,28h32c15.464,0,28-12.536,28-28v-68h8v68c0,15.464,12.536,28,28,28h32c15.464,0,28-12.536,28-28v-68h24
			c17.673,0,32-14.327,32-32v-18.698c3.637,1.729,7.705,2.698,12,2.698h32c15.464,0,28-12.536,28-28V201.333
			C496,185.869,483.464,173.333,468,173.333z"/>
		<path fill="#5FAA46" d="M361.978,62.919l20.882-34.803c1.483-2.472,1.522-5.55,0.102-8.058C381.542,17.55,378.882,16,376,16h-32
			c-2.81,0-5.414,1.475-6.86,3.884l-17.48,29.133C314.534,48.349,309.308,48,304,48h-56c-5.308,0-10.534,0.349-15.66,1.017
			l-17.48-29.133C213.414,17.475,210.81,16,208,16h-32c-2.882,0-5.542,1.55-6.961,4.059c-1.42,2.508-1.381,5.586,0.102,8.058
			l20.882,34.803C153.044,83.365,128,122.755,128,168h296C424,122.755,398.956,83.365,361.978,62.919z"/>
	</g>
	<g>
		<path fill="#91C83C" d="M128,368c0,17.673,14.327,32,32,32h24v68c0,15.464,12.536,28,28,28s28-12.536,28-28v-68h40v68
			c0,15.464,12.536,28,28,28s28-12.536,28-28v-68h24c17.673,0,32-14.327,32-32V184H128V368z"/>
		<path fill="#91C83C" d="M329.978,62.919l20.882-34.803c2.273-3.789,1.045-8.703-2.744-10.976
			c-3.791-2.275-8.703-1.044-10.976,2.744l-21.729,36.215C301.948,50.873,287.31,48,272,48h-24c-15.31,0-29.948,2.873-43.411,8.099
			L182.86,19.884c-2.273-3.788-7.187-5.018-10.976-2.744c-3.789,2.273-5.017,7.187-2.744,10.976l20.882,34.803
			C153.044,83.365,128,122.755,128,168h264C392,122.755,366.956,83.365,329.978,62.919z"/>
		<path fill="#91C83C" d="M84,173.333c-15.464,0-28,12.536-28,28V324c0,15.464,12.536,28,28,28s28-12.536,28-28V201.333
			C112,185.869,99.464,173.333,84,173.333z"/>
		<path fill="#91C83C" d="M436,173.333c-15.464,0-28,12.536-28,28V324c0,15.464,12.536,28,28,28s28-12.536,28-28V201.333
			C464,185.869,451.464,173.333,436,173.333z"/>
	</g>
	<g>
		<circle fill="#D7E6F0" cx="204" cy="108" r="12"/>
	</g>
	<g>
		<circle fill="#D7E6F0" cx="316" cy="108" r="12"/>
	</g>
</g>
</svg>
