<?xml version="1.0" encoding="utf-8"?>
<!-- Generator: Adobe Illustrator 24.0.0, SVG Export Plug-In . SVG Version: 6.00 Build 0)  -->
<svg version="1.1" id="Layer_1" xmlns="http://www.w3.org/2000/svg" xmlns:xlink="http://www.w3.org/1999/xlink" x="0px" y="0px"
	 viewBox="0 0 512 512" enable-background="new 0 0 512 512" xml:space="preserve">
<g>
	<path fill="#4182C3" d="M494.311,456.845l-208-416C283.601,35.424,278.061,32,272,32h-32c-6.061,0-11.601,3.424-14.311,8.845
		l-22.334,44.669c-17.681,35.362-27.026,74.951-27.026,114.486c0,22.067,2.918,44.15,8.566,65.506
		c-2.64-3.841-5.408-7.617-8.305-11.323c-3.032-3.88-7.683-6.148-12.607-6.148h-32c-6.061,0-11.601,3.424-14.311,8.845
		L17.689,456.845c-2.479,4.959-2.215,10.85,0.701,15.567C21.305,477.129,26.455,480,32,480h163.195
		c6.701,0,12.691-4.175,15.011-10.461C219.359,444.732,224,418.645,224,392c0-15.418-1.538-30.571-4.547-45.317l62.236,124.473
		c2.71,5.421,8.25,8.845,14.311,8.845h184c5.545,0,10.695-2.871,13.61-7.588C496.526,467.695,496.791,461.804,494.311,456.845z"/>
	<g>
		<path fill="#64AFE1" d="M462.311,456.845l-208-416C251.601,35.424,246.061,32,240,32s-11.601,3.424-14.311,8.845l-22.334,44.669
			c-17.681,35.362-27.026,74.951-27.026,114.486s9.346,79.125,27.026,114.486l78.334,156.669c2.71,5.421,8.25,8.845,14.311,8.845
			h152c5.545,0,10.695-2.871,13.61-7.588C464.526,467.695,464.791,461.804,462.311,456.845z"/>
		<path fill="#64AFE1" d="M130.388,248.115c-5.461,0.547-10.261,3.855-12.716,8.765L17.689,456.845
			c-2.479,4.959-2.215,10.85,0.701,15.567C21.305,477.129,26.455,480,32,480h131.195c6.701,0,12.691-4.175,15.011-10.461
			C187.359,444.732,192,418.645,192,392c0-50.472-16.395-98.128-47.411-137.817C141.21,249.858,135.852,247.57,130.388,248.115z"/>
	</g>
</g>
</svg>
