<?xml version="1.0" encoding="utf-8"?>
<!-- Generator: Adobe Illustrator 24.0.0, SVG Export Plug-In . SVG Version: 6.00 Build 0)  -->
<svg version="1.1" id="Layer_1" xmlns="http://www.w3.org/2000/svg" xmlns:xlink="http://www.w3.org/1999/xlink" x="0px" y="0px"
	 viewBox="0 0 512 512" enable-background="new 0 0 512 512" xml:space="preserve">
<g>
	<g>
		<path fill="#5FAA46" d="M272,480h-32C116.288,480,16,379.712,16,256v0C16,132.288,116.288,32,240,32h32
			c123.712,0,224,100.288,224,224v0C496,379.712,395.712,480,272,480z"/>
	</g>
	<g>
		<circle fill="#91C83C" cx="240" cy="256" r="224"/>
	</g>
	<g>
		<circle fill="#D7E6F0" cx="240" cy="256" r="16"/>
		<path fill="#D7E6F0" d="M240,200c-3.551,0-7.114,0.061-10.677,0.174c10.295-13.266,21.036-24.642,31.621-33.35
			c16.681-13.723,31.283-19.234,39.057-14.747c6.461,3.73,9.369,15.24,7.979,31.58c-0.375,4.402,2.891,8.275,7.293,8.649
			c4.41,0.372,8.275-2.891,8.649-7.293c2.52-29.623-7.267-41.796-15.921-46.792c-14.2-8.198-34.522-2.428-57.222,16.247
			c-14.354,11.809-28.893,28.024-42.323,47.019c-11.168,1.057-22.11,2.672-32.459,4.833c-1.121-4.47-2.053-8.834-2.754-13.046
			c-3.544-21.307-1.018-36.708,6.757-41.197c6.454-3.726,17.861-0.5,31.297,8.851c3.627,2.523,8.612,1.63,11.136-1.997
			c2.524-3.627,1.63-8.612-1.997-11.136c-24.369-16.959-39.791-14.567-48.437-9.574c-14.2,8.198-19.363,28.682-14.541,57.679
			c0.765,4.597,1.777,9.351,2.997,14.214C127.68,219.374,104,234.856,104,256c0,9.993,5.65,24.557,32.565,37.186
			c1.099,0.516,2.255,0.76,3.393,0.76c3.006,0,5.886-1.703,7.248-4.604c1.877-4,0.156-8.764-3.844-10.641
			C128.515,271.735,120,263.46,120,256c0-10.921,17.168-22.59,44.933-30.488c3.259,9.93,7.309,20.185,12.085,30.55
			c-22.97,50.182-31.497,102.431-5.018,117.718c3.565,2.059,8.282,3.675,14.303,3.675c8.582,0,19.813-3.284,34.132-13.249
			c3.627-2.523,4.521-7.509,1.997-11.136c-2.524-3.627-7.511-4.521-11.136-1.997c-13.437,9.35-24.844,12.576-31.297,8.85
			c-12.699-7.332-11.087-42.145,6.35-85.191c1.665,3.094,3.373,6.186,5.152,9.269c17.563,30.419,38.614,56.534,59.276,73.532
			c15.964,13.133,30.749,19.884,43.058,19.883c5.194,0,9.95-1.204,14.164-3.636c9.42-5.438,19.717-18.999,15.28-52.716
			c-3.111-23.639-13.071-52.347-28.044-80.837c-2.056-3.911-6.894-5.415-10.803-3.36c-3.911,2.056-5.416,6.893-3.36,10.803
			C310.783,304.2,314.846,351.352,300,359.923c-7.774,4.49-22.375-1.023-39.057-14.747c-19.217-15.81-38.957-40.377-55.584-69.176
			c-3.842-6.654-7.391-13.337-10.649-19.987c3.207-6.574,6.752-13.264,10.649-20.013c3.842-6.654,7.855-13.069,11.985-19.216
			C224.64,216.274,232.207,216,240,216c68.681,0,120,21.118,120,40c0,7.46-8.514,15.734-23.36,22.7
			c-4,1.876-5.721,6.641-3.844,10.641c1.876,3.999,6.639,5.721,10.641,3.844C370.351,280.556,376,265.993,376,256
			C376,219.626,305.93,200,240,200z M191.502,228c-1.775,3.075-3.505,6.191-5.188,9.334c-2.153-5.28-4.091-10.494-5.799-15.609
			c5.226-1.075,10.715-2.022,16.437-2.821C195.106,221.893,193.282,224.917,191.502,228z"/>
	</g>
</g>
</svg>
