<?xml version="1.0" encoding="utf-8"?>
<!-- Generator: Adobe Illustrator 24.0.0, SVG Export Plug-In . SVG Version: 6.00 Build 0)  -->
<svg version="1.1" id="Layer_1" xmlns="http://www.w3.org/2000/svg" xmlns:xlink="http://www.w3.org/1999/xlink" x="0px" y="0px"
	 viewBox="0 0 512 512" enable-background="new 0 0 512 512" xml:space="preserve">
<g>
	<g>
		<path fill="#4182C3" d="M416,464H128c-35.346,0-64-28.654-64-64V112c0-35.346,28.654-64,64-64h288c35.346,0,64,28.654,64,64v288
			C480,435.346,451.346,464,416,464z"/>
	</g>
	<g>
		<path fill="#64AFE1" d="M384,464H96c-35.346,0-64-28.654-64-64V112c0-35.346,28.654-64,64-64h288c35.346,0,64,28.654,64,64v288
			C448,435.346,419.346,464,384,464z"/>
	</g>
	<g>
		<path fill="#D7E6F0" d="M240,212L240,212c0-28.719-23.281-52-52-52h-88c-2.209,0-4,1.791-4,4v176c0,2.209,1.791,4,4,4h84
			c30.928,0,56-25.072,56-56l0,0c0-15.078-5.97-28.753-15.661-38.82C233.998,239.738,240,226.573,240,212z M128,192h60
			c11.046,0,20,8.954,20,20l0,0c0,11.046-8.954,20-20,20h-60V192z M208,288c0,13.255-10.745,24-24,24h-56v-48h56
			C197.255,264,208,274.745,208,288L208,288z"/>
	</g>
	<g>
		<path fill="#D7E6F0" d="M380,284v-11.089c0-32.926-26.146-60.401-59.068-60.904C287.423,211.496,260,238.606,260,272v15.054
			c0,33.377,27.31,61.317,60.685,60.942c25.25-0.284,46.792-16.25,55.353-38.592c0.999-2.606-0.962-5.404-3.753-5.404h-20.048
			c-5.902,11.842-18.131,20-32.236,20c-19.851,0-36-16.149-36-36h92C378.209,288,380,286.209,380,284z M320,236
			c17.101,0,31.444,11.989,35.093,28h-70.186C288.556,247.989,302.899,236,320,236z M356,176h-72c-2.209,0-4,1.791-4,4v8
			c0,2.209,1.791,4,4,4h72c2.209,0,4-1.791,4-4v-8C360,177.791,358.209,176,356,176z"/>
	</g>
</g>
</svg>
