<?xml version="1.0" encoding="utf-8"?>
<!-- Generator: Adobe Illustrator 24.0.0, SVG Export Plug-In . SVG Version: 6.00 Build 0)  -->
<svg version="1.1" id="Layer_1" xmlns="http://www.w3.org/2000/svg" xmlns:xlink="http://www.w3.org/1999/xlink" x="0px" y="0px"
	 viewBox="0 0 512 512" enable-background="new 0 0 512 512" xml:space="preserve">
<g>
	<path fill="#4182C3" d="M492.072,54.832c-3.039-3.493-7.442-5.499-12.072-5.499H32c-4.63,0-9.033,2.006-12.072,5.499
		c-3.038,3.493-4.415,8.132-3.773,12.717l53.333,381.333c1.105,7.903,7.865,13.784,15.846,13.784h341.334
		c7.98,0,14.74-5.881,15.846-13.784l53.333-381.333C496.487,62.964,495.11,58.326,492.072,54.832z M196.126,184h119.748l-28.363,144
		h-63.021L196.126,184z"/>
	<path fill="#64AFE1" d="M460.072,54.832c-3.039-3.493-7.442-5.499-12.072-5.499H32c-4.63,0-9.033,2.006-12.072,5.499
		c-3.038,3.493-4.415,8.132-3.773,12.717l53.333,381.333c1.105,7.904,7.865,13.784,15.846,13.784h309.334
		c7.98,0,14.74-5.88,15.846-13.784L463.846,67.55C464.487,62.964,463.11,58.326,460.072,54.832z M164.126,184h151.748l-28.363,144
		h-95.021L164.126,184z"/>
</g>
</svg>
