<?xml version="1.0" encoding="utf-8"?>
<!-- Generator: Adobe Illustrator 24.0.0, SVG Export Plug-In . SVG Version: 6.00 Build 0)  -->
<svg version="1.1" id="Layer_1" xmlns="http://www.w3.org/2000/svg" xmlns:xlink="http://www.w3.org/1999/xlink" x="0px" y="0px"
	 viewBox="0 0 512 512" enable-background="new 0 0 512 512" xml:space="preserve">
<g>
	<path fill="#4182C3" d="M448.142,292l44.568-58.281c3.697-4.835,4.331-11.351,1.634-16.808C491.647,211.454,486.087,208,480,208
		h-32c-4.983,0-9.683,2.322-12.71,6.281L412,244.737l-23.29-30.456C385.683,210.322,380.983,208,376,208h-32
		c-6.087,0-11.647,3.454-14.344,8.912c-0.001,0.001-0.001,0.003-0.002,0.005C318.325,211.224,305.543,208,292,208h-32
		c-25.638,0-48.593,11.486-64,29.592C180.593,219.486,157.638,208,132,208h-32c-6.892,0-13.59,0.83-20,2.396v-55.729
		c0-8.836-7.164-16-16-16H32c-8.836,0-16,7.164-16,16V292c0,46.392,37.608,84,84,84h32c25.638,0,48.593-11.486,64-29.592
		C211.407,364.514,234.362,376,260,376h32c13.543,0,26.325-3.224,37.654-8.917c0.001,0.001,0.001,0.003,0.002,0.005
		C332.353,372.546,337.913,376,344,376h32c4.983,0,9.683-2.322,12.71-6.281L412,339.263l23.29,30.456
		c3.027,3.958,7.727,6.281,12.71,6.281h32c6.087,0,11.647-3.454,14.344-8.912c2.697-5.457,2.063-11.972-1.634-16.808L448.142,292z
		 M116,341.492C95.11,334.743,80,315.136,80,292s15.11-42.743,36-49.492c20.89,6.749,36,26.355,36,49.492
		S136.89,334.743,116,341.492z M276,341.492c-20.89-6.749-36-26.355-36-49.492s15.11-42.743,36-49.492
		c20.89,6.749,36,26.355,36,49.492S296.89,334.743,276,341.492z"/>
	<g>
		<path fill="#64AFE1" d="M260,208c-37.433,0-69.147,24.486-80,58.314C169.147,232.486,137.433,208,100,208
			c-19.635,0-37.697,6.737-52,18.026v-71.36c0-8.836-7.164-16-16-16s-16,7.164-16,16V292c0,46.392,37.608,84,84,84
			c37.433,0,69.147-24.486,80-58.314C190.853,351.514,222.567,376,260,376c46.392,0,84-37.608,84-84S306.392,208,260,208z M100,344
			c-28.719,0-52-23.281-52-52s23.281-52,52-52s52,23.281,52,52S128.719,344,100,344z M260,344c-28.719,0-52-23.281-52-52
			s23.281-52,52-52s52,23.281,52,52S288.719,344,260,344z"/>
		<path fill="#64AFE1" d="M416.142,292l44.568-58.281c5.367-7.02,4.028-17.061-2.991-22.429c-7.018-5.367-17.062-4.028-22.429,2.991
			L396,265.66l-39.29-51.379c-5.37-7.02-15.411-8.358-22.429-2.991c-7.02,5.368-8.358,15.41-2.991,22.429L375.858,292
			l-44.568,58.281c-5.367,7.02-4.028,17.061,2.991,22.429c2.9,2.218,6.317,3.291,9.707,3.291c4.813,0,9.572-2.163,12.722-6.282
			L396,318.34l39.29,51.379c3.15,4.119,7.908,6.282,12.722,6.282c3.39,0,6.807-1.073,9.707-3.291
			c7.02-5.368,8.358-15.41,2.991-22.429L416.142,292z"/>
	</g>
</g>
</svg>
