<?xml version="1.0" encoding="utf-8"?>
<!-- Generator: Adobe Illustrator 24.0.0, SVG Export Plug-In . SVG Version: 6.00 Build 0)  -->
<svg version="1.1" id="Layer_1" xmlns="http://www.w3.org/2000/svg" xmlns:xlink="http://www.w3.org/1999/xlink" x="0px" y="0px"
	 viewBox="0 0 512 512" enable-background="new 0 0 512 512" xml:space="preserve">
<g>
	<g>
		<path fill="#804B8F" d="M492.8,246.4l-42.067-56.09l43.578-87.155c2.864-5.728,2.037-12.611-2.103-17.497
			C489.118,82.01,484.626,80,480,80.001V80h-0.023c-0.024,0-0.047,0-0.071,0H448v0.001c-1.57,0-3.154,0.229-4.706,0.707L288,128.491
			V96c0-5.077-2.41-9.854-6.495-12.87c-2.785-2.057-6.124-3.104-9.505-3.104V80h-32v0.026c-1.577,0-3.162,0.207-4.706,0.682l-208,64
			C20.581,146.773,16,152.976,16,160v160c0,5.077,2.41,9.854,6.495,12.87C25.28,334.928,28.618,336,32,336l0,0h32l0,0
			c0,0,0.001,0,0.001,0c1.576,0,3.162-0.232,4.705-0.708L224,287.509V320c0,5.077,2.41,9.854,6.495,12.87
			c2.785,2.058,6.124,3.129,9.505,3.13l0,0h32l0,0c0,0,0.001,0,0.001,0c1.576,0,3.162-0.232,4.705-0.708l208-64
			c4.978-1.531,8.899-5.391,10.51-10.344C496.827,255.994,495.925,250.567,492.8,246.4z M224,127.509v116.673L80,288.491V171.817
			L224,127.509z M288,171.817l123.149-37.892l-25.46,50.919c-2.71,5.42-2.125,11.907,1.511,16.755l34.349,45.799L288,288.491
			V171.817z"/>
		<path fill="#804B8F" d="M80,376H48c-17.673,0-32,14.327-32,32l0,0c0,17.673,14.327,32,32,32h32c17.673,0,32-14.327,32-32l0,0
			C112,390.327,97.673,376,80,376z"/>
	</g>
	<g>
		<path fill="#9B5FAA" d="M460.8,246.4l-42.067-56.09l43.578-87.155c2.864-5.728,2.037-12.611-2.103-17.497
			c-4.14-4.887-10.792-6.836-16.914-4.95L256,138.337V96c0-5.077-2.41-9.854-6.495-12.87c-4.084-3.017-9.357-3.918-14.211-2.422
			l-208,64C20.581,146.773,16,152.976,16,160v160c0,5.077,2.41,9.854,6.495,12.87c2.786,2.058,6.125,3.13,9.506,3.13
			c1.576,0,3.162-0.232,4.705-0.708L224,277.663V320c0,5.077,2.41,9.854,6.495,12.87c2.786,2.058,6.125,3.13,9.506,3.13
			c1.576,0,3.162-0.232,4.705-0.708l208-64c4.978-1.531,8.899-5.391,10.51-10.344C464.827,255.994,463.925,250.567,460.8,246.4z
			 M48,298.337v-126.52l176-54.154v126.52L48,298.337z M256,298.337v-126.52l160.967-49.528l-31.278,62.556
			c-2.71,5.42-2.125,11.907,1.511,16.755l34.349,45.799L256,298.337z"/>
		<circle fill="#9B5FAA" cx="48" cy="408" r="32"/>
	</g>
</g>
</svg>
