<?xml version="1.0" encoding="utf-8"?>
<!-- Generator: Adobe Illustrator 24.0.0, SVG Export Plug-In . SVG Version: 6.00 Build 0)  -->
<svg version="1.1" id="Layer_1" xmlns="http://www.w3.org/2000/svg" xmlns:xlink="http://www.w3.org/1999/xlink" x="0px" y="0px"
	 viewBox="0 0 512 512" enable-background="new 0 0 512 512" xml:space="preserve">
<g>
	<g>
		<path fill="#463C4B" d="M272,480h-32C116.288,480,16,379.712,16,256v0C16,132.288,116.288,32,240,32h32
			c123.712,0,224,100.288,224,224v0C496,379.712,395.712,480,272,480z"/>
	</g>
	<g>
		<circle fill="#555A6E" cx="240" cy="256" r="224"/>
	</g>
	<path fill="#FFFFFF" d="M374.36,197.824l-128-80c-3.891-2.432-8.829-2.432-12.72,0l-128,80c-3.509,2.193-5.64,6.039-5.64,10.176v96
		c0,4.137,2.131,7.983,5.64,10.176l128,80c1.945,1.216,4.153,1.824,6.36,1.824s4.415-0.608,6.36-1.824l128-80
		c3.509-2.193,5.64-6.039,5.64-10.176v-96C380,203.863,377.869,200.017,374.36,197.824z M356,282.349L313.841,256L356,229.651
		V282.349z M291.2,241.849l-39.2-24.5v-67.698L345.358,208L291.2,241.849z M240,273.849L211.441,256L240,238.151L268.559,256
		L240,273.849z M228,149.651v67.698l-39.2,24.5L134.642,208L228,149.651z M124,229.651L166.159,256L124,282.349V229.651z
		 M188.8,270.151l39.2,24.5v67.698L134.642,304L188.8,270.151z M252,362.349v-67.698l39.2-24.5L345.358,304L252,362.349z"/>
</g>
</svg>
