<?xml version="1.0" encoding="utf-8"?>
<!-- Generator: Adobe Illustrator 24.0.0, SVG Export Plug-In . SVG Version: 6.00 Build 0)  -->
<svg version="1.1" id="Layer_1" xmlns="http://www.w3.org/2000/svg" xmlns:xlink="http://www.w3.org/1999/xlink" x="0px" y="0px"
	 viewBox="0 0 512 512" enable-background="new 0 0 512 512" xml:space="preserve">
<g>
	<g>
		<g>
			<path fill="#F06423" d="M128,344H48c-4.418,0-8,3.582-8,8v40c0,4.418,3.582,8,8,8h80c4.418,0,8-3.582,8-8v-40
				C136,347.582,132.418,344,128,344z"/>
		</g>
		<g>
			<path fill="#F04B37" d="M248,344h-80c-4.418,0-8,3.582-8,8v40c0,4.418,3.582,8,8,8h80c4.418,0,8-3.582,8-8v-40
				C256,347.582,252.418,344,248,344z"/>
		</g>
		<g>
			<path fill="#804B8F" d="M368,344h-80c-4.418,0-8,3.582-8,8v40c0,4.418,3.582,8,8,8h80c4.418,0,8-3.582,8-8v-40
				C376,347.582,372.418,344,368,344z"/>
		</g>
		<g>
			<path fill="#4182C3" d="M488,344h-80c-4.418,0-8,3.582-8,8v40c0,4.418,3.582,8,8,8h80c4.418,0,8-3.582,8-8v-40
				C496,347.582,492.418,344,488,344z"/>
		</g>
		<g>
			<path fill="#F04B37" d="M248,264h-80c-4.418,0-8,3.582-8,8v40c0,4.418,3.582,8,8,8h80c4.418,0,8-3.582,8-8v-40
				C256,267.582,252.418,264,248,264z"/>
		</g>
		<g>
			<path fill="#804B8F" d="M368,264h-80c-4.418,0-8,3.582-8,8v40c0,4.418,3.582,8,8,8h80c4.418,0,8-3.582,8-8v-40
				C376,267.582,372.418,264,368,264z"/>
		</g>
		<g>
			<path fill="#4182C3" d="M488,264h-80c-4.418,0-8,3.582-8,8v40c0,4.418,3.582,8,8,8h80c4.418,0,8-3.582,8-8v-40
				C496,267.582,492.418,264,488,264z"/>
		</g>
		<g>
			<path fill="#F06423" d="M248,184h-80c-4.418,0-8,3.582-8,8v40c0,4.418,3.582,8,8,8h80c4.418,0,8-3.582,8-8v-40
				C256,187.582,252.418,184,248,184z"/>
		</g>
		<g>
			<path fill="#5FAA46" d="M488,184h-80c-4.418,0-8,3.582-8,8v40c0,4.418,3.582,8,8,8h80c4.418,0,8-3.582,8-8v-40
				C496,187.582,492.418,184,488,184z"/>
		</g>
		<g>
			<path fill="#5FAA46" d="M488,104h-80c-4.418,0-8,3.582-8,8v40c0,4.418,3.582,8,8,8h80c4.418,0,8-3.582,8-8v-40
				C496,107.582,492.418,104,488,104z"/>
		</g>
	</g>
	<g>
		<g>
			<path fill="#FAA019" d="M104,344H24c-4.418,0-8,3.582-8,8v40c0,4.418,3.582,8,8,8h80c4.418,0,8-3.582,8-8v-40
				C112,347.582,108.418,344,104,344z"/>
		</g>
		<g>
			<path fill="#F5826E" d="M224,344h-80c-4.418,0-8,3.582-8,8v40c0,4.418,3.582,8,8,8h80c4.418,0,8-3.582,8-8v-40
				C232,347.582,228.418,344,224,344z"/>
		</g>
		<g>
			<path fill="#9B5FAA" d="M344,344h-80c-4.418,0-8,3.582-8,8v40c0,4.418,3.582,8,8,8h80c4.418,0,8-3.582,8-8v-40
				C352,347.582,348.418,344,344,344z"/>
		</g>
		<g>
			<path fill="#64AFE1" d="M464,344h-80c-4.418,0-8,3.582-8,8v40c0,4.418,3.582,8,8,8h80c4.418,0,8-3.582,8-8v-40
				C472,347.582,468.418,344,464,344z"/>
		</g>
		<g>
			<path fill="#F5826E" d="M224,264h-80c-4.418,0-8,3.582-8,8v40c0,4.418,3.582,8,8,8h80c4.418,0,8-3.582,8-8v-40
				C232,267.582,228.418,264,224,264z"/>
		</g>
		<g>
			<path fill="#9B5FAA" d="M344,264h-80c-4.418,0-8,3.582-8,8v40c0,4.418,3.582,8,8,8h80c4.418,0,8-3.582,8-8v-40
				C352,267.582,348.418,264,344,264z"/>
		</g>
		<g>
			<path fill="#64AFE1" d="M464,264h-80c-4.418,0-8,3.582-8,8v40c0,4.418,3.582,8,8,8h80c4.418,0,8-3.582,8-8v-40
				C472,267.582,468.418,264,464,264z"/>
		</g>
		<g>
			<path fill="#FAA019" d="M224,184h-80c-4.418,0-8,3.582-8,8v40c0,4.418,3.582,8,8,8h80c4.418,0,8-3.582,8-8v-40
				C232,187.582,228.418,184,224,184z"/>
		</g>
		<g>
			<path fill="#91C83C" d="M464,184h-80c-4.418,0-8,3.582-8,8v40c0,4.418,3.582,8,8,8h80c4.418,0,8-3.582,8-8v-40
				C472,187.582,468.418,184,464,184z"/>
		</g>
		<g>
			<path fill="#91C83C" d="M464,104h-80c-4.418,0-8,3.582-8,8v40c0,4.418,3.582,8,8,8h80c4.418,0,8-3.582,8-8v-40
				C472,107.582,468.418,104,464,104z"/>
		</g>
	</g>
</g>
</svg>
