<?xml version="1.0" encoding="utf-8"?>
<!-- Generator: Adobe Illustrator 24.0.0, SVG Export Plug-In . SVG Version: 6.00 Build 0)  -->
<svg version="1.1" id="Layer_1" xmlns="http://www.w3.org/2000/svg" xmlns:xlink="http://www.w3.org/1999/xlink" x="0px" y="0px"
	 viewBox="0 0 512 512" enable-background="new 0 0 512 512" xml:space="preserve">
<g>
	<path fill="#4182C3" d="M432,24H80c-26.467,0-48,21.533-48,48v328c0,26.467,21.533,48,48,48h280
		c6.861,0,12.713-4.318,14.987-10.385l45.699,45.699c3,3,7.07,4.686,11.313,4.686h32c8.837,0,16-7.164,16-16V72
		C480,45.533,458.467,24,432,24z"/>
	<path fill="#64AFE1" d="M400,24H80c-26.467,0-48,21.533-48,48v328c0,26.467,21.533,48,48,48h248c8.837,0,16-7.164,16-16v-25.373
		l76.687,76.687c3.061,3.061,7.153,4.687,11.317,4.687c2.061,0,4.14-0.398,6.119-1.218C444.102,484.306,448,478.471,448,472V72
		C448,45.533,426.467,24,400,24z"/>
	<g>
		<path fill="#D7E6F0" d="M383.761,294.06l-32-128c-0.638-2.552-2.489-4.626-4.952-5.55l-64-24
			c-2.595-0.973-5.512-0.533-7.704,1.163c-2.192,1.697-3.351,4.408-3.061,7.165l1.561,14.826
			c17.108,3.763,33.511,10.38,48.505,19.688c1.877,1.165,2.454,3.631,1.289,5.508c-0.757,1.22-2.064,1.891-3.402,1.891
			c-0.72,0-1.449-0.194-2.105-0.602C294.548,171.659,267.613,164,240,164s-54.548,7.659-77.891,22.148
			c-1.876,1.165-4.343,0.587-5.508-1.289c-1.165-1.877-0.588-4.343,1.289-5.508c17.365-10.779,36.617-17.954,56.67-21.255
			l1.396-13.259c0.29-2.757-0.868-5.468-3.061-7.165c-2.193-1.696-5.11-2.136-7.704-1.163l-64,24
			c-2.463,0.924-4.314,2.999-4.952,5.55l-32,128c-0.87,3.477,0.68,7.108,3.792,8.886l56,32c1.246,0.712,2.612,1.055,3.964,1.055
			c2.446,0,4.846-1.122,6.405-3.201l18.135-24.179c-12.111-3.864-23.75-9.209-34.644-15.972c-1.877-1.165-2.454-3.631-1.289-5.508
			c1.165-1.876,3.633-2.454,5.508-1.289C185.452,300.341,212.387,308,240,308s54.548-7.659,77.891-22.148
			c1.875-1.167,4.342-0.588,5.508,1.289c1.165,1.877,0.588,4.343-1.289,5.508c-8.974,5.57-18.455,10.171-28.285,13.784L313.6,332.8
			c1.56,2.079,3.959,3.201,6.405,3.201c1.352,0,2.718-0.342,3.964-1.055l56-32C383.081,301.168,384.631,297.537,383.761,294.06z
			 M196,280c-15.464,0-28-12.536-28-28s12.536-28,28-28s28,12.536,28,28S211.464,280,196,280z M284,280c-15.464,0-28-12.536-28-28
			s12.536-28,28-28s28,12.536,28,28S299.464,280,284,280z"/>
	</g>
</g>
</svg>
