<?xml version="1.0" encoding="utf-8"?>
<!-- Generator: Adobe Illustrator 24.0.0, SVG Export Plug-In . SVG Version: 6.00 Build 0)  -->
<svg version="1.1" id="Layer_1" xmlns="http://www.w3.org/2000/svg" xmlns:xlink="http://www.w3.org/1999/xlink" x="0px" y="0px"
	 viewBox="0 0 512 512" enable-background="new 0 0 512 512" xml:space="preserve">
<g>
	<g>
		<path fill="#E1322D" d="M272,480h-32C116.288,480,16,379.712,16,256v0C16,132.288,116.288,32,240,32h32
			c123.712,0,224,100.288,224,224v0C496,379.712,395.712,480,272,480z"/>
	</g>
	<g>
		<circle fill="#F5826E" cx="240" cy="256" r="224"/>
	</g>
	<path fill="#F04B37" d="M398.392,97.608C356.084,55.3,299.832,32,240,32S123.916,55.3,81.608,97.608
		C39.3,139.917,16,196.167,16,256s23.3,116.083,65.608,158.392C123.916,456.7,180.168,480,240,480s116.084-23.3,158.392-65.608
		C440.7,372.083,464,315.833,464,256S440.7,139.917,398.392,97.608z M305.614,243.538c-6.804-16.589-14.351-32.937-22.554-48.87
		c36.979-16.524,72.319-36.73,105.42-60.259c26.125,31.844,42.228,72.207,43.442,116.227C405.98,243.582,379.189,240,352,240
		C336.446,240,320.899,241.198,305.614,243.538z M365.918,111.177c-30.928,21.594-63.878,40.132-98.296,55.326
		c-20.208-34.716-43.765-67.455-70.302-97.715C211.052,65.659,225.335,64,240,64C288.134,64,332.185,81.808,365.918,111.177z
		 M164.094,79.657c27.939,30.413,52.628,63.639,73.619,99.077C178.349,201.1,116.135,213.486,52.28,215.649
		C65.425,154.436,107.833,103.967,164.094,79.657z M48,256c0-2.751,0.072-5.485,0.187-8.208
		c70.755-1.812,139.656-15.507,205.224-40.789c7.335,14.093,14.135,28.534,20.321,43.195c-37.203,9.93-72.694,27.079-103.588,50.175
		c-29.664,22.177-55.335,50.017-75.178,81.308C65.722,347.979,48,304.021,48,256z M118.456,404.517
		c37.181-62.246,96.955-106.736,166.973-124.299c17.448,48.67,28.4,99.415,32.601,151.194C294.175,442.066,267.769,448,240,448
		C193.92,448,151.583,431.677,118.456,404.517z M348.562,414.272c-5.008-47.85-15.508-94.783-31.319-140.057
		C328.732,272.751,340.362,272,352,272c26.626,0,52.819,3.826,78.041,11.368C422.271,337.57,391.784,384.532,348.562,414.272z"/>
</g>
</svg>
