<?xml version="1.0" encoding="utf-8"?>
<!-- Generator: Adobe Illustrator 24.0.0, SVG Export Plug-In . SVG Version: 6.00 Build 0)  -->
<svg version="1.1" id="Layer_1" xmlns="http://www.w3.org/2000/svg" xmlns:xlink="http://www.w3.org/1999/xlink" x="0px" y="0px"
	 viewBox="0 0 512 512" enable-background="new 0 0 512 512" xml:space="preserve">
<g>
	<path fill="#4182C3" d="M392,304H112c-4.418,0-8,3.582-8,8v88c0,2.89,1.559,5.556,4.078,6.973l128,72
		c1.197,0.673,2.548,1.027,3.922,1.027h32c1.45,0,2.873-0.394,4.116-1.14l120-72c2.409-1.446,3.884-4.05,3.884-6.86v-88
		C400,307.582,396.418,304,392,304z"/>
	<path fill="#64AFE1" d="M493.065,297.809L412.633,232l80.433-65.809c1.996-1.632,3.082-4.126,2.918-6.7
		c-0.163-2.573-1.557-4.909-3.743-6.276l-128-80c-1.303-0.814-2.774-1.193-4.24-1.193V72h-32v0.022
		c-1.804,0-3.601,0.587-5.065,1.786L256,128.573l-66.935-54.765c-1.465-1.199-3.261-1.786-5.065-1.786V72h-32v0.022
		c-1.466,0-2.937,0.379-4.24,1.193l-128,80c-2.187,1.367-3.58,3.703-3.743,6.276c-0.164,2.573,0.922,5.067,2.918,6.7L99.367,232
		l-80.433,65.809c-1.996,1.632-3.082,4.126-2.918,6.7c0.163,2.573,1.557,4.909,3.743,6.276l84.24,52.65V400
		c0,2.89,1.559,5.556,4.078,6.973l128,72c1.219,0.686,2.57,1.027,3.922,1.027c1.426,0,2.851-0.381,4.116-1.14l120-72
		c2.409-1.446,3.884-4.05,3.884-6.86v-11.565l124.24-77.65c2.187-1.367,3.58-3.703,3.743-6.276
		C496.147,301.935,495.062,299.441,493.065,297.809z M256,292.565L159.095,232L256,171.435L352.905,232L256,292.565z"/>
	<path fill="#78D2F0" d="M461.065,297.809L380.633,232l80.433-65.809c1.996-1.632,3.082-4.126,2.918-6.7
		c-0.163-2.573-1.557-4.909-3.743-6.276l-128-80c-2.909-1.817-6.651-1.58-9.306,0.593L240,141.664l-82.935-67.855
		c-2.654-2.173-6.398-2.41-9.306-0.593l-128,80c-2.187,1.367-3.58,3.703-3.743,6.276c-0.164,2.573,0.922,5.067,2.918,6.7L99.367,232
		l-80.433,65.809c-1.996,1.632-3.082,4.126-2.918,6.7c0.163,2.573,1.557,4.909,3.743,6.276l128,80
		c1.304,0.814,2.773,1.216,4.239,1.216c1.805,0,3.602-0.61,5.066-1.809L240,322.336l82.935,67.855
		c1.465,1.199,3.262,1.809,5.066,1.809c1.465,0,2.937-0.402,4.239-1.216l128-80c2.187-1.367,3.58-3.703,3.743-6.276
		C464.147,301.935,463.062,299.441,461.065,297.809z M127.095,232L240,161.435L352.905,232L240,302.565L127.095,232z"/>
</g>
</svg>
