<?xml version="1.0" encoding="utf-8"?>
<!-- Generator: Adobe Illustrator 24.0.0, SVG Export Plug-In . SVG Version: 6.00 Build 0)  -->
<svg version="1.1" id="Layer_1" xmlns="http://www.w3.org/2000/svg" xmlns:xlink="http://www.w3.org/1999/xlink" x="0px" y="0px"
	 viewBox="0 0 512 512" enable-background="new 0 0 512 512" xml:space="preserve">
<g>
	<g>
		<path fill="#4182C3" d="M272,480h-32C116.288,480,16,379.712,16,256v0C16,132.288,116.288,32,240,32h32
			c123.712,0,224,100.288,224,224v0C496,379.712,395.712,480,272,480z"/>
	</g>
	<g>
		<circle fill="#64AFE1" cx="240" cy="256" r="224"/>
	</g>
	<g>
		<path fill="#D7E6F0" d="M336,124h-64c-37.495,0-68,30.505-68,68v60h-60c-2.209,0-4,1.791-4,4v64c0,2.209,1.791,4,4,4h60v153.106
			C215.722,479,227.743,480,240,480s24.278-1,36-2.894V324h52c2.017,0,3.719-1.502,3.969-3.504l8-64
			c0.142-1.138-0.211-2.283-0.971-3.143S337.147,252,336,252h-60v-36c0-19.851,16.149-36,36-36h24c2.209,0,4-1.791,4-4v-48
			C340,125.791,338.209,124,336,124z"/>
	</g>
</g>
</svg>
