<?xml version="1.0" encoding="utf-8"?>
<!-- Generator: Adobe Illustrator 24.0.0, SVG Export Plug-In . SVG Version: 6.00 Build 0)  -->
<svg version="1.1" id="Layer_1" xmlns="http://www.w3.org/2000/svg" xmlns:xlink="http://www.w3.org/1999/xlink" x="0px" y="0px"
	 viewBox="0 0 512 512" enable-background="new 0 0 512 512" xml:space="preserve">
<g>
	<path fill="#4182C3" d="M430.168,95.045C387.886,54.39,331.715,32,272,32c-5.323,0-10.7,0.183-16,0.543
		C250.701,32.183,245.324,32,240,32c-59.714,0-115.886,22.39-158.168,63.045C39.379,135.865,16,190.185,16,248
		c0,33.9,7.918,66.36,23.536,96.478c13.63,26.286,33.057,49.99,56.464,68.974v45.215c0,8.837,7.164,16,16,16h32
		c2.301,0,4.575-0.496,6.667-1.455l34.411-15.772c17.9,4.355,36.347,6.56,54.922,6.56c5.343,0,10.744-0.185,16.073-0.549
		C261.425,463.815,266.776,464,272,464c59.715,0,115.886-22.39,158.168-63.045C472.62,360.135,496,305.815,496,248
		S472.62,135.865,430.168,95.045z"/>
	<path fill="#64AFE1" d="M398.168,95.045C355.887,54.39,299.715,32,240,32c-59.714,0-115.886,22.39-158.168,63.045
		C39.379,135.865,16,190.185,16,248c0,33.9,7.918,66.36,23.536,96.478c13.63,26.286,33.057,49.99,56.464,68.974v45.215
		c0,5.449,2.773,10.523,7.359,13.466c2.619,1.681,5.624,2.534,8.642,2.534c2.267,0,4.542-0.481,6.666-1.455l46.825-21.461
		C189.387,459.881,214.419,464,240,464c59.715,0,115.887-22.39,158.168-63.045C440.62,360.135,464,305.815,464,248
		S440.62,135.865,398.168,95.045z"/>
	<path fill="#D7E6F0" d="M378.984,180.366c-5.6-5.286-14.168-5.834-20.396-1.306l-77.775,56.564l-36.649-31.414
		c-9.186-7.874-20.908-12.21-33.007-12.21h-0.966c-16.64,0-32.229,8.168-41.701,21.849l-61.646,89.043
		c-4.521,6.53-3.567,15.387,2.24,20.806c3.062,2.857,6.984,4.302,10.918,4.302c3.526,0,7.062-1.161,9.993-3.506l69.545-55.636
		l44.106,38.593c9.249,8.093,21.11,12.549,33.398,12.549c17.338,0,33.287-8.707,42.664-23.292l61.75-96.056
		C385.622,194.176,384.583,185.652,378.984,180.366z"/>
</g>
</svg>
