<?xml version="1.0" encoding="utf-8"?>
<!-- Generator: Adobe Illustrator 24.0.0, SVG Export Plug-In . SVG Version: 6.00 Build 0)  -->
<svg version="1.1" id="Layer_1" xmlns="http://www.w3.org/2000/svg" xmlns:xlink="http://www.w3.org/1999/xlink" x="0px" y="0px"
	 viewBox="0 0 512 512" enable-background="new 0 0 512 512" xml:space="preserve">
<g>
	<path fill="#E1322D" d="M486.627,233.373l-192-192C288.626,35.372,280.487,32,272,32h-32c-8.487,0-16.626,3.372-22.627,9.373
		l-192,192c-12.497,12.497-12.497,32.758,0,45.255l192,192C223.374,476.628,231.513,480,240,480h32
		c8.487,0,16.626-3.372,22.627-9.373l192-192C499.124,266.131,499.124,245.869,486.627,233.373z"/>
	<path fill="#F04B37" d="M454.627,233.373l-192-192c-12.497-12.497-32.758-12.497-45.255,0l-192,192
		c-12.497,12.497-12.497,32.758,0,45.255l192,192C223.621,476.876,231.811,480,240,480s16.379-3.124,22.627-9.373l192-192
		C467.124,266.131,467.124,245.869,454.627,233.373z"/>
	<g>
		<path fill="#D7E6F0" d="M336,224c-2.866,0-5.641,0.382-8.284,1.089l-56.805-56.805c0.707-2.643,1.089-5.418,1.089-8.284
			c0-17.673-14.327-32-32-32c-2.866,0-5.641,0.382-8.284,1.089l-51.03-51.03l-22.627,22.627l51.03,51.03
			C208.382,154.359,208,157.134,208,160c0,11.842,6.438,22.175,16,27.708v136.583c-9.562,5.534-16,15.866-16,27.708
			c0,17.673,14.327,32,32,32s32-14.327,32-32c0-11.842-6.438-22.175-16-27.708V198.627l49.089,49.089
			C304.382,250.359,304,253.134,304,256c0,17.673,14.327,32,32,32s32-14.327,32-32C368,238.327,353.673,224,336,224z"/>
	</g>
</g>
</svg>
