<?xml version="1.0" encoding="utf-8"?>
<!-- Generator: Adobe Illustrator 24.0.0, SVG Export Plug-In . SVG Version: 6.00 Build 0)  -->
<svg version="1.1" id="Layer_1" xmlns="http://www.w3.org/2000/svg" xmlns:xlink="http://www.w3.org/1999/xlink" x="0px" y="0px"
	 viewBox="0 0 512 512" enable-background="new 0 0 512 512" xml:space="preserve">
<g>
	<g>
		<path fill="#463C4B" d="M272,480h-32C116.288,480,16,379.712,16,256v0C16,132.288,116.288,32,240,32h32
			c123.712,0,224,100.288,224,224v0C496,379.712,395.712,480,272,480z"/>
	</g>
	<g>
		<circle fill="#555A6E" cx="240" cy="256" r="224"/>
	</g>
	<path fill="#D7E6F0" d="M360,181.549V128c0-2.95-1.624-5.661-4.226-7.053c-2.602-1.393-5.757-1.239-8.212,0.397l-39.668,26.446
		C299.016,145.323,289.663,144,280,144h-80c-9.663,0-19.016,1.323-27.894,3.789l-39.668-26.446
		c-2.454-1.636-5.611-1.789-8.212-0.397C121.624,122.339,120,125.05,120,128v53.549C105.015,199.569,96,222.731,96,248v0
		c0,57.438,46.562,104,104,104h0.824c-8.585,8.409-14.471,19.554-16.249,32.029C184.382,384.022,184.194,384,184,384h-20.118
		c-8.547,0-16.583-3.329-22.627-9.373l-24.568-24.568C107.621,340.993,95.567,336,82.745,336H72c-8.836,0-16,7.163-16,16
		s7.164,16,16,16h10.745c4.274,0,8.292,1.664,11.313,4.686l24.569,24.569C130.716,409.343,146.788,416,163.882,416H184v32
		c0,8.709-3.484,16.601-9.128,22.371C195.483,476.624,217.346,480,240,480s44.517-3.376,65.128-9.629
		C299.484,464.601,296,456.709,296,448v-56c0-15.674-6.447-29.835-16.824-40H280c57.438,0,104-46.562,104-104v0
		C384,222.731,374.985,199.569,360,181.549z"/>
</g>
</svg>
