<?xml version="1.0" encoding="utf-8"?>
<!-- Generator: Adobe Illustrator 24.0.0, SVG Export Plug-In . SVG Version: 6.00 Build 0)  -->
<svg version="1.1" id="Layer_1" xmlns="http://www.w3.org/2000/svg" xmlns:xlink="http://www.w3.org/1999/xlink" x="0px" y="0px"
	 viewBox="0 0 512 512" enable-background="new 0 0 512 512" xml:space="preserve">
<g>
	<g>
		<path fill="#4182C3" d="M48,168v224c0,17.673,14.327,32,32,32h64c4.418,0,8-3.582,8-8V168H48z"/>
	</g>
	<g>
		<path fill="#C3140F" d="M125.35,98.019c-8.749-6.76-19.089-10.001-29.35-9.989V88H64v0.015
			c-14.345,0.005-28.531,6.406-37.981,18.635c-6.761,8.75-10.018,19.094-10.009,29.357L16,136v32l104,80.476h32V118.612
			L125.35,98.019z"/>
	</g>
	<g>
		<path fill="#E1322D" d="M360,118.612l-104,80.363l-104-80.363h-32v129.864l107.656,83.306C231.19,334.516,235.532,336,240,336
			s27.532,0,32,0s8.81-1.484,12.344-4.218L392,248.476V118.612H360z"/>
	</g>
	<g>
		<path fill="#FAA019" d="M495.99,136.008c0.009-10.263-3.247-20.608-10.009-29.357C476.531,94.42,462.345,88.02,448,88.014V88h-32
			v0.029c-10.26-0.012-20.601,3.229-29.35,9.989L360,118.612v129.864h32L496,168v-32L495.99,136.008z"/>
	</g>
	<g>
		<path fill="#418C28" d="M496,168v224c0,17.673-14.327,32-32,32h-64c-4.418,0-8-3.582-8-8V168H496z"/>
	</g>
	<g>
		<path fill="#64AFE1" d="M16,168v224c0,17.673,14.327,32,32,32h64c4.418,0,8-3.582,8-8V168H16z"/>
	</g>
	<g>
		<path fill="#5FAA46" d="M464,168v224c0,17.673-14.327,32-32,32h-64c-4.418,0-8-3.582-8-8V168H464z"/>
	</g>
	<g>
		<path fill="#F04B37" d="M240,211.339l-120-92.727v129.864l107.656,83.306C231.19,334.516,235.532,336,240,336
			s8.81-1.484,12.344-4.218L360,248.476V118.612L240,211.339z"/>
	</g>
	<g>
		<path fill="#E1322D" d="M120,118.612L93.35,98.019c-20.978-16.209-51.122-12.344-67.331,8.632
			c-6.761,8.75-10.018,19.094-10.009,29.357L16,136v32l104,80.476V118.612z"/>
	</g>
	<g>
		<path fill="#FFD205" d="M453.981,106.65c-16.21-20.978-46.354-24.841-67.331-8.632L360,118.612v129.864L464,168v-32l-0.01,0.008
			C463.999,125.745,460.743,115.4,453.981,106.65z"/>
	</g>
</g>
</svg>
