<?xml version="1.0" encoding="utf-8"?>
<!-- Generator: Adobe Illustrator 24.0.0, SVG Export Plug-In . SVG Version: 6.00 Build 0)  -->
<svg version="1.1" id="Layer_1" xmlns="http://www.w3.org/2000/svg" xmlns:xlink="http://www.w3.org/1999/xlink" x="0px" y="0px"
	 viewBox="0 0 512 512" enable-background="new 0 0 512 512" xml:space="preserve">
<g>
	<g>
		<path fill="#463C4B" d="M440,448H104c-22.091,0-40-17.909-40-40V104c0-22.091,17.909-40,40-40h336c22.091,0,40,17.909,40,40v304
			C480,430.091,462.091,448,440,448z"/>
	</g>
	<g>
		<path fill="#555A6E" d="M408,448H72c-22.091,0-40-17.909-40-40V104c0-22.091,17.909-40,40-40h336c22.091,0,40,17.909,40,40v304
			C448,430.091,430.091,448,408,448z"/>
	</g>
	<g>
		<g>
			<path fill="#D7E6F0" d="M176,248V136c0-8.837-7.163-16-16-16H88c-8.837,0-16,7.163-16,16v72c0,8.837,7.163,16,16,16h40
				c4.418,0,8-3.582,8-8v-8c0-4.418-3.582-8-8-8h-24c-4.418,0-8-3.582-8-8v-40c0-4.418,3.582-8,8-8h40c4.418,0,8,3.582,8,8v80
				c0,4.418-3.582,8-8,8H80c-4.418,0-8,3.582-8,8v8c0,4.418,3.582,8,8,8h80C168.837,264,176,256.837,176,248z"/>
		</g>
		<g>
			<path fill="#D7E6F0" d="M72,304v72c0,8.837,7.163,16,16,16h64c4.418,0,8-3.582,8-8v-8c0-4.418-3.582-8-8-8h-48
				c-4.418,0-8-3.582-8-8v-40c0-4.418,3.582-8,8-8h48c4.418,0,8-3.582,8-8v-8c0-4.418-3.582-8-8-8H88C79.163,288,72,295.163,72,304z
				"/>
		</g>
		<g>
			<path fill="#D7E6F0" d="M304,136v72c0,8.837,7.163,16,16,16h40c4.418,0,8-3.582,8-8v-8c0-4.418-3.582-8-8-8h-24
				c-4.418,0-8-3.582-8-8v-40c0-4.418,3.582-8,8-8h40c4.418,0,8,3.582,8,8v80c0,4.418-3.582,8-8,8h-64c-4.418,0-8,3.582-8,8v8
				c0,4.418,3.582,8,8,8h80c8.837,0,16-7.163,16-16V136c0-8.837-7.163-16-16-16h-72C311.163,120,304,127.163,304,136z"/>
		</g>
		<g>
			<path fill="#D7E6F0" d="M288,208v-72c0-8.837-7.163-16-16-16h-64c-8.837,0-16,7.163-16,16v72c0,8.837,7.163,16,16,16h64
				C280.837,224,288,216.837,288,208z M224,144h32c4.418,0,8,3.582,8,8v40c0,4.418-3.582,8-8,8h-32c-4.418,0-8-3.582-8-8v-40
				C216,147.582,219.582,144,224,144z"/>
		</g>
		<g>
			<path fill="#D7E6F0" d="M176,304v72c0,8.837,7.163,16,16,16h64c8.837,0,16-7.163,16-16v-72c0-8.837-7.163-16-16-16h-64
				C183.163,288,176,295.163,176,304z M240,368h-32c-4.418,0-8-3.582-8-8v-40c0-4.418,3.582-8,8-8h32c4.418,0,8,3.582,8,8v40
				C248,364.418,244.418,368,240,368z"/>
		</g>
		<g>
			<path fill="#D7E6F0" d="M288,304v80c0,4.418,3.582,8,8,8h8c4.418,0,8-3.582,8-8v-64c0-4.418,3.582-8,8-8h8c4.418,0,8,3.582,8,8
				v64c0,4.418,3.582,8,8,8h8c4.418,0,8-3.582,8-8v-64c0-4.418,3.582-8,8-8h8c4.418,0,8,3.582,8,8v64c0,4.418,3.582,8,8,8h8
				c4.418,0,8-3.582,8-8v-88c0-4.418-3.582-8-8-8h-96C295.163,288,288,295.163,288,304z"/>
		</g>
	</g>
</g>
</svg>
