<?xml version="1.0" encoding="utf-8"?>
<!-- Generator: Adobe Illustrator 24.0.0, SVG Export Plug-In . SVG Version: 6.00 Build 0)  -->
<svg version="1.1" id="Layer_1" xmlns="http://www.w3.org/2000/svg" xmlns:xlink="http://www.w3.org/1999/xlink" x="0px" y="0px"
	 viewBox="0 0 512 512" enable-background="new 0 0 512 512" xml:space="preserve">
<g>
	<path fill="#418C28" d="M272,16c-5.275,0-10.654,0.207-16,0.614C250.654,16.207,245.275,16,240,16C125.309,16,32,109.309,32,224
		s93.309,208,208,208v48c0,4.418,3.582,8,8,8h32c1.056,0,2.102-0.209,3.077-0.615c2.009-0.837,49.764-20.99,98.191-63.364
		c28.561-24.991,51.344-52.536,67.718-81.872C469.565,305.277,480,265.526,480,224C480,109.309,386.691,16,272,16z"/>
	<path fill="#5FAA46" d="M240,16C125.309,16,32,109.309,32,224s93.309,208,208,208v48c0,2.675,1.337,5.173,3.562,6.656
		c1.334,0.889,2.881,1.344,4.438,1.344c1.042,0,2.087-0.203,3.077-0.615c2.009-0.837,49.764-20.99,98.191-63.364
		c28.561-24.991,51.344-52.536,67.718-81.872C437.565,305.277,448,265.526,448,224C448,109.309,354.691,16,240,16z"/>
	<g>
		<path fill="#D7E6F0" d="M216,168h-72c-4.418,0-8,3.582-8,8v72c0,4.418,3.582,8,8,8h40v35.774c0,2.369,2.051,4.244,4.406,3.986
			C208.424,293.567,224,276.602,224,256v-80C224,171.582,220.418,168,216,168z"/>
	</g>
	<g>
		<path fill="#D7E6F0" d="M336,168h-72c-4.418,0-8,3.582-8,8v72c0,4.418,3.582,8,8,8h40v35.774c0,2.369,2.051,4.244,4.406,3.986
			C328.424,293.567,344,276.602,344,256v-80C344,171.582,340.418,168,336,168z"/>
	</g>
</g>
</svg>
