<?xml version="1.0" encoding="utf-8"?>
<!-- Generator: Adobe Illustrator 24.0.0, SVG Export Plug-In . SVG Version: 6.00 Build 0)  -->
<svg version="1.1" id="Layer_1" xmlns="http://www.w3.org/2000/svg" xmlns:xlink="http://www.w3.org/1999/xlink" x="0px" y="0px"
	 viewBox="0 0 512 512" enable-background="new 0 0 512 512" xml:space="preserve">
<g>
	<g>
		<path fill="#F04B37" d="M272,480h-32C116.288,480,16,379.712,16,256v0C16,132.288,116.288,32,240,32h32
			c123.712,0,224,100.288,224,224v0C496,379.712,395.712,480,272,480z"/>
	</g>
	<g>
		<circle fill="#F5826E" cx="240" cy="256" r="224"/>
	</g>
	<g>
		<circle fill="#D7E6F0" cx="240" cy="256" r="208"/>
	</g>
	<g>
		<path fill="#F5826E" d="M341.006,105.76c-1.894-1.519-4.372-2.095-6.741-1.569l-144,32c-3.66,0.813-6.265,4.06-6.265,7.81v169.583
			l-47.389,10.531C122.12,327.334,112,339.95,112,354.794c0,9.583,4.288,18.519,11.763,24.516c5.65,4.532,12.542,6.922,19.611,6.922
			c2.285,0,4.587-0.25,6.873-0.758l12.167-2.704c22.082-4.907,37.516-24.102,37.584-46.707c0-0.021,0.003-0.042,0.003-0.063V198.417
			l128-28.445v119.61l-47.39,10.531c-14.49,3.22-24.61,15.836-24.61,30.68c0,9.583,4.287,18.519,11.763,24.516
			c5.649,4.532,12.543,6.922,19.611,6.922c2.284,0,4.587-0.25,6.872-0.758l12.166-2.704C328.543,353.852,344,334.584,344,311.913
			V112C344,109.573,342.898,107.278,341.006,105.76z"/>
	</g>
</g>
</svg>
