<?xml version="1.0" encoding="utf-8"?>
<!-- Generator: Adobe Illustrator 24.0.0, SVG Export Plug-In . SVG Version: 6.00 Build 0)  -->
<svg version="1.1" id="Layer_1" xmlns="http://www.w3.org/2000/svg" xmlns:xlink="http://www.w3.org/1999/xlink" x="0px" y="0px"
	 viewBox="0 0 512 512" enable-background="new 0 0 512 512" xml:space="preserve">
<g>
	<g>
		<path fill="#FAA019" d="M448,464H96c-17.673,0-32-14.327-32-32V80c0-17.673,14.327-32,32-32h352c17.673,0,32,14.327,32,32v352
			C480,449.673,465.673,464,448,464z"/>
	</g>
	<g>
		<path fill="#FFD205" d="M416,464H64c-17.673,0-32-14.327-32-32V80c0-17.673,14.327-32,32-32h352c17.673,0,32,14.327,32,32v352
			C448,449.673,433.673,464,416,464z"/>
	</g>
	<path fill="#555A6E" d="M358.07,145.078c-31.621-24.77-73.553-38.411-118.07-38.411s-86.449,13.642-118.07,38.411
		C89.732,170.3,72,204.01,72,240s17.732,69.7,49.93,94.922c9.951,7.795,20.924,14.485,32.677,19.998l-18.133,50.371
		c-1.19,3.306-0.084,7,2.725,9.108C140.62,415.466,142.31,416,144,416c1.65,0,3.302-0.51,4.706-1.53l59.773-43.471
		c10.288,1.539,20.829,2.334,31.521,2.334c44.518,0,86.449-13.642,118.07-38.411C390.268,309.7,408,275.99,408,240
		S390.268,170.3,358.07,145.078z"/>
	<g>
		<path fill="#FFD205" d="M173.333,216c4.418,0,8-3.582,8-8s-3.582-8-8-8H120c-4.418,0-8,3.582-8,8s3.582,8,8,8h18.667v64
			c0,4.418,3.582,8,8,8s8-3.582,8-8v-64H173.333z"/>
		<path fill="#FFD205" d="M209.983,207.571c-1.188-3.09-4.157-5.128-7.467-5.128h-0.012c-3.314,0.005-6.283,2.053-7.463,5.15
			l-26.517,69.557c-1.574,4.128,0.497,8.751,4.625,10.325c0.938,0.357,1.901,0.526,2.848,0.526c3.223,0,6.26-1.962,7.477-5.152
			l5.153-13.517h27.967l5.121,13.315c1.586,4.124,6.214,6.181,10.339,4.595c4.124-1.586,6.181-6.215,4.595-10.339L209.983,207.571z
			 M194.728,253.333l7.822-20.519l7.892,20.519H194.728z"/>
		<path fill="#FFD205" d="M288,272h-24v-64c0-4.418-3.582-8-8-8c-4.418,0-8,3.582-8,8v72c0,4.418,3.582,8,8,8h32
			c4.418,0,8-3.582,8-8S292.418,272,288,272z"/>
		<path fill="#FFD205" d="M363.58,275.003l-28.627-35.784l23.026-25.905c2.936-3.302,2.638-8.358-0.665-11.294
			c-3.301-2.936-8.357-2.638-11.294,0.665l-28.688,32.273V208c0-4.418-3.582-8-8-8s-8,3.582-8,8v72c0,4.418,3.582,8,8,8s8-3.582,8-8
			v-20.958l6.836-7.69l26.917,33.646c1.58,1.976,3.905,3.003,6.252,3.003c1.753,0,3.518-0.573,4.992-1.753
			C365.78,283.487,366.34,278.452,363.58,275.003z"/>
	</g>
</g>
</svg>
