<?xml version="1.0" encoding="utf-8"?>
<!-- Generator: Adobe Illustrator 24.0.0, SVG Export Plug-In . SVG Version: 6.00 Build 0)  -->
<svg version="1.1" id="Layer_1" xmlns="http://www.w3.org/2000/svg" xmlns:xlink="http://www.w3.org/1999/xlink" x="0px" y="0px"
	 viewBox="0 0 512 512" enable-background="new 0 0 512 512" xml:space="preserve">
<g>
	<g>
		<path fill="#E1322D" d="M464,464H80c-8.837,0-16-7.163-16-16V64c0-8.837,7.163-16,16-16h384c8.837,0,16,7.163,16,16v384
			C480,456.837,472.837,464,464,464z"/>
	</g>
	<g>
		<path fill="#F04B37" d="M432,464H48c-8.837,0-16-7.163-16-16V64c0-8.837,7.163-16,16-16h384c8.837,0,16,7.163,16,16v384
			C448,456.837,440.837,464,432,464z"/>
	</g>
	<g>
		<circle fill="#D7E6F0" cx="112" cy="256" r="40"/>
	</g>
	<g>
		<circle fill="#D7E6F0" cx="216" cy="256" r="40"/>
	</g>
	<g>
		<circle fill="#D7E6F0" cx="320" cy="256" r="40"/>
	</g>
	<g>
		<path fill="#D7E6F0" d="M400,344L400,344c-4.418,0-8-3.582-8-8V176c0-4.418,3.582-8,8-8l0,0c4.418,0,8,3.582,8,8v160
			C408,340.418,404.418,344,400,344z"/>
	</g>
</g>
</svg>
