<?xml version="1.0" encoding="utf-8"?>
<!-- Generator: Adobe Illustrator 24.0.0, SVG Export Plug-In . SVG Version: 6.00 Build 0)  -->
<svg version="1.1" id="Layer_1" xmlns="http://www.w3.org/2000/svg" xmlns:xlink="http://www.w3.org/1999/xlink" x="0px" y="0px"
	 viewBox="0 0 512 512" enable-background="new 0 0 512 512" xml:space="preserve">
<g>
	<g>
		<path fill="#5FAA46" d="M384,464H160c-53.019,0-96-42.981-96-96V144c0-53.019,42.981-96,96-96h224c53.019,0,96,42.981,96,96v224
			C480,421.019,437.019,464,384,464z"/>
	</g>
	<g>
		<path fill="#91C83C" d="M352,464H128c-53.019,0-96-42.981-96-96V144c0-53.019,42.981-96,96-96h224c53.019,0,96,42.981,96,96v224
			C448,421.019,405.019,464,352,464z"/>
	</g>
	<g>
		<path fill="#D7E6F0" d="M384,240c0-61.856-64.471-112-144-112S96,178.144,96,240c0,59.768,60.192,108.601,136,111.83V376
			c0,4.418,3.582,8,8,8c1.596,0,3.083-0.468,4.331-1.273l0,0l87.547-56.483l0,0C363.72,305.7,384,274.692,384,240z"/>
	</g>
	<g>
		<path fill="#91C83C" d="M184,256h-24v-40c0-4.418-3.582-8-8-8s-8,3.582-8,8v48c0,4.418,3.582,8,8,8h32c4.418,0,8-3.582,8-8
			S188.418,256,184,256z"/>
		<path fill="#91C83C" d="M208,208c-4.418,0-8,3.582-8,8v48c0,4.418,3.582,8,8,8s8-3.582,8-8v-48C216,211.582,212.418,208,208,208z"
			/>
		<path fill="#91C83C" d="M272,208c-4.418,0-8,3.582-8,8v25.903l-25.854-31.024c-2.154-2.587-5.697-3.549-8.869-2.401
			C226.109,209.624,224,212.632,224,216v48c0,4.418,3.582,8,8,8s8-3.582,8-8v-25.903l25.854,31.024
			c1.55,1.86,3.817,2.879,6.147,2.879c0.91,0,1.831-0.155,2.722-0.478c3.167-1.146,5.276-4.154,5.276-7.522v-48
			C280,211.582,276.418,208,272,208z"/>
		<path fill="#91C83C" d="M328,248c4.418,0,8-3.582,8-8s-3.582-8-8-8h-24v-8h24c4.418,0,8-3.582,8-8s-3.582-8-8-8h-32
			c-4.418,0-8,3.582-8,8v48c0,4.418,3.582,8,8,8h32c4.418,0,8-3.582,8-8s-3.582-8-8-8h-24v-8H328z"/>
	</g>
</g>
</svg>
