<?xml version="1.0" encoding="utf-8"?>
<!-- Generator: Adobe Illustrator 24.0.0, SVG Export Plug-In . SVG Version: 6.00 Build 0)  -->
<svg version="1.1" id="Layer_1" xmlns="http://www.w3.org/2000/svg" xmlns:xlink="http://www.w3.org/1999/xlink" x="0px" y="0px"
	 viewBox="0 0 512 512" enable-background="new 0 0 512 512" xml:space="preserve">
<g>
	<path fill="#463C4B" d="M469.122,215.229c-2.969-4.442-7.959-7.109-13.302-7.109h-32c-5.904,0-11.328,3.251-14.111,8.459
		c-2.783,5.207-2.472,11.524,0.81,16.432c0.381,0.57,0.738,1.153,1.11,1.729H383.88c-5.904,0-11.329,3.252-14.112,8.46
		c-0.917,1.716-1.49,3.552-1.74,5.419c-5.006-2.906-10.434-5.164-16.176-6.632C348.709,178.599,296.153,128,232,128h-32
		c-27.198,0-53.842,9.354-75.021,26.34c-17.612,14.125-30.936,33.061-38.321,54.202C46.932,213.185,16,247.049,16,288
		c0,44.112,35.888,80,80,80h240c11.664,0,22.6-3.152,32.027-8.625c0.249,1.869,0.823,3.708,1.741,5.426
		c2.783,5.208,8.208,8.46,14.112,8.46h27.749c-0.372,0.575-0.729,1.158-1.11,1.729c-3.281,4.909-3.593,11.225-0.81,16.432
		c2.783,5.207,8.207,8.459,14.111,8.459h32c5.343,0,10.333-2.667,13.302-7.109C486.706,366.464,496,335.767,496,304
		S486.706,241.536,469.122,215.229z M48.063,290.467C48.021,289.65,48,288.827,48,288C48,288.827,48.038,289.646,48.063,290.467z
		 M128,336c-26.467,0-48-21.533-48-48c0-20.874,13.398-38.669,32.043-45.262c6.656,2.354,12.758,6.181,17.898,11.321
		c3.001,3,7.07,4.686,11.313,4.686h32c6.472,0,12.306-3.898,14.782-9.877c2.477-5.979,1.107-12.861-3.469-17.437
		c-9.308-9.308-20.51-16.029-32.733-19.826c11.818-26.233,35.726-44.968,64.106-50.154C256.881,168.973,288,204.919,288,248
		c0,9.52-1.512,18.886-4.494,27.838c-1.626,4.879-0.807,10.242,2.2,14.413c3.008,4.172,7.837,6.644,12.979,6.644h32
		c1.5,0,2.96-0.221,4.355-0.616c0.616,2.475,0.959,5.057,0.959,7.721c0,17.645-14.355,32-32,32H128z"/>
	<g>
		<path fill="#555A6E" d="M319.852,241.986C316.709,178.599,264.153,128,200,128c-27.198,0-53.842,9.354-75.021,26.34
			c-17.612,14.125-30.936,33.061-38.321,54.202C46.932,213.185,16,247.049,16,288c0,44.112,35.888,80,80,80h208
			c35.29,0,64-28.71,64-64C368,274.179,347.5,249.057,319.852,241.986z M304,336H96c-26.467,0-48-21.533-48-48s21.533-48,48-48
			c12.821,0,24.875,4.993,33.941,14.059c3.124,3.124,7.219,4.686,11.313,4.686s8.189-1.562,11.313-4.687
			c6.249-6.249,6.248-16.379,0-22.627c-9.308-9.308-20.51-16.029-32.733-19.826C133.825,180.549,164.76,160,200,160
			c48.523,0,88,39.477,88,88c0,9.52-1.512,18.886-4.494,27.838c-2.793,8.384,1.739,17.444,10.123,20.237
			c1.678,0.559,3.382,0.825,5.059,0.825c6.699,0,12.944-4.242,15.178-10.948c1.227-3.683,2.249-7.421,3.109-11.194
			C328.171,279.746,336,290.973,336,304C336,321.645,321.645,336,304,336z"/>
		<path fill="#555A6E" d="M397.181,241.846c-4.911-7.346-14.85-9.319-22.194-4.407c-7.346,4.912-9.318,14.848-4.407,22.194
			C379.359,272.764,384,288.106,384,304s-4.641,31.236-13.421,44.366c-4.911,7.346-2.938,17.282,4.407,22.194
			c2.732,1.827,5.821,2.701,8.879,2.701c5.162,0,10.23-2.495,13.315-7.108C409.492,347.741,416,326.249,416,304
			S409.492,260.259,397.181,241.846z"/>
		<path fill="#555A6E" d="M437.122,215.229c-4.908-7.346-14.847-9.321-22.192-4.411c-7.347,4.91-9.322,14.847-4.411,22.193
			C424.571,254.037,432,278.585,432,304s-7.429,49.963-21.481,70.989c-4.911,7.347-2.936,17.283,4.411,22.193
			c2.731,1.826,5.819,2.699,8.876,2.699c5.163,0,10.232-2.496,13.316-7.111C454.706,366.464,464,335.767,464,304
			S454.706,241.536,437.122,215.229z"/>
	</g>
</g>
</svg>
