<?xml version="1.0" encoding="utf-8"?>
<!-- Generator: Adobe Illustrator 24.0.0, SVG Export Plug-In . SVG Version: 6.00 Build 0)  -->
<svg version="1.1" id="Layer_1" xmlns="http://www.w3.org/2000/svg" xmlns:xlink="http://www.w3.org/1999/xlink" x="0px" y="0px"
	 viewBox="0 0 512 512" enable-background="new 0 0 512 512" xml:space="preserve">
<g>
	<g>
		<path fill="#F04B37" d="M408,464H136c-39.765,0-72-32.236-72-72V120c0-39.765,32.235-72,72-72h272c39.764,0,72,32.235,72,72v272
			C480,431.764,447.764,464,408,464z"/>
	</g>
	<g>
		<path fill="#F5826E" d="M376,464H104c-39.765,0-72-32.236-72-72V120c0-39.765,32.235-72,72-72h272c39.764,0,72,32.235,72,72v272
			C448,431.764,415.764,464,376,464z"/>
	</g>
	<g>
		<path fill="#463C4B" d="M144,384h-24c-4.418,0-8-3.582-8-8V152c0-4.418,3.582-8,8-8h24c4.418,0,8,3.582,8,8v224
			C152,380.418,148.418,384,144,384z"/>
	</g>
	<g>
		<circle fill="#D7E6F0" cx="280" cy="232" r="88"/>
	</g>
</g>
</svg>
