<?xml version="1.0" encoding="utf-8"?>
<!-- Generator: Adobe Illustrator 24.0.0, SVG Export Plug-In . SVG Version: 6.00 Build 0)  -->
<svg version="1.1" id="Layer_1" xmlns="http://www.w3.org/2000/svg" xmlns:xlink="http://www.w3.org/1999/xlink" x="0px" y="0px"
	 viewBox="0 0 512 512" enable-background="new 0 0 512 512" xml:space="preserve">
<g>
	<g>
		<path fill="#E1322D" d="M272,480h-32C116.288,480,16,379.712,16,256v0C16,132.288,116.288,32,240,32h32
			c123.712,0,224,100.288,224,224v0C496,379.712,395.712,480,272,480z"/>
	</g>
	<g>
		<circle fill="#F04B37" cx="240" cy="256" r="224"/>
	</g>
	<g>
		<path fill="#D7E6F0" d="M294.966,110.58c-75.766-30.298-162.07,6.688-192.386,82.453c-18.612,46.531-12.542,98.849,16.237,139.949
			c3.891,5.557,10.095,8.53,16.4,8.53c3.961,0,7.963-1.174,11.454-3.619c9.048-6.335,11.247-18.807,4.911-27.854
			c-21.011-30.006-25.446-68.193-11.864-102.148c22.122-55.29,85.103-82.282,140.392-60.171
			c55.261,22.112,82.253,85.041,60.201,140.312c-0.011,0.027-0.025,0.052-0.036,0.079c-9.179,22.95-25.358,41.525-46.786,53.719
			c-15.413,8.771-33.171,7.697-47.504-2.872c-14.477-10.675-20.812-27.506-16.944-45.022l14.488-65.624
			c-0.008-0.001-0.015-0.002-0.023-0.002c2.317-10.471-4.043-20.974-14.509-23.675c-10.695-2.76-21.603,3.673-24.363,14.368
			L142.97,457.95c12.002,5.777,24.603,10.501,37.676,14.085l28.971-112.261c3.762,4.125,7.973,7.944,12.629,11.377
			c14.905,10.991,32.199,16.554,49.598,16.554c14.149,0,28.369-3.68,41.429-11.111c28.925-16.46,51.681-42.562,64.092-73.506
			c0.017-0.042,0.039-0.08,0.056-0.122C407.72,227.2,370.733,140.896,294.966,110.58z"/>
	</g>
</g>
</svg>
