<?xml version="1.0" encoding="utf-8"?>
<!-- Generator: Adobe Illustrator 24.0.0, SVG Export Plug-In . SVG Version: 6.00 Build 0)  -->
<svg version="1.1" id="Layer_1" xmlns="http://www.w3.org/2000/svg" xmlns:xlink="http://www.w3.org/1999/xlink" x="0px" y="0px"
	 viewBox="0 0 512 512" enable-background="new 0 0 512 512" xml:space="preserve">
<g>
	<g>
		<path fill="#F06423" d="M272,480h-32C116.288,480,16,379.712,16,256v0C16,132.288,116.288,32,240,32h32
			c123.712,0,224,100.288,224,224v0C496,379.712,395.712,480,272,480z"/>
	</g>
	<g>
		<circle fill="#FAA019" cx="240" cy="256" r="224"/>
	</g>
	<g>
		<path fill="#D7E6F0" d="M392,257.333C392,238.924,377.076,224,358.667,224c-10.172,0-19.274,4.562-25.388,11.746
			c-21.31-15.587-50.789-25.83-83.737-27.5l12.864-70.751l49.901,10.324C314.135,159.258,324.045,168,336,168
			c13.255,0,24-10.745,24-24s-10.745-24-24-24c-8.912,0-16.684,4.862-20.824,12.074l-57.555-11.908
			c-2.112-0.437-4.308-0.003-6.095,1.202c-1.787,1.205-3.011,3.08-3.397,5.201l-14.827,81.551
			c-34.095,1.209-64.659,11.592-86.58,27.626C140.607,228.562,131.506,224,121.333,224C102.924,224,88,238.924,88,257.333
			c0,15.297,10.308,28.178,24.354,32.1C112.122,291.601,112,293.791,112,296c0,48.601,57.308,88,128,88s128-39.399,128-88
			c0-2.209-0.122-4.399-0.354-6.567C381.692,285.512,392,272.63,392,257.333z M164,280c0-13.255,10.745-24,24-24s24,10.745,24,24
			s-10.745,24-24,24S164,293.255,164,280z M292.803,348.642C276.732,354.764,258.474,358,240,358s-36.732-3.236-52.802-9.358
			c-3.097-1.18-4.651-4.646-3.471-7.743c1.179-3.097,4.648-4.651,7.743-3.471C206.189,343.036,222.971,346,240,346
			c17.029,0,33.811-2.964,48.531-8.572c3.098-1.179,6.563,0.375,7.742,3.471C297.453,343.996,295.899,347.462,292.803,348.642z
			 M292,304c-13.255,0-24-10.745-24-24s10.745-24,24-24s24,10.745,24,24S305.255,304,292,304z"/>
	</g>
</g>
</svg>
