<?xml version="1.0" encoding="utf-8"?>
<!-- Generator: Adobe Illustrator 24.0.0, SVG Export Plug-In . SVG Version: 6.00 Build 0)  -->
<svg version="1.1" id="Layer_1" xmlns="http://www.w3.org/2000/svg" xmlns:xlink="http://www.w3.org/1999/xlink" x="0px" y="0px"
	 viewBox="0 0 512 512" enable-background="new 0 0 512 512" xml:space="preserve">
<g>
	<g>
		<path fill="#4182C3" d="M296,80c-8.142,0-39.858,0-48,0c-97.202,0-176,78.798-176,176c0,36.84,11.336,71.021,30.686,99.285L72,432
			h48l48.015-19.206C192.013,425.068,219.194,432,248,432c8.132,0,39.848,0,48,0c97.202,0,176-78.798,176-176S393.202,80,296,80z"/>
	</g>
	<g>
		<g>
			<path fill="#78D2F0" d="M57.817,410.827c-0.988,0-1.994-0.184-2.968-0.574c-4.103-1.641-6.098-6.297-4.457-10.399l16.566-41.415
				c-7.662-13.504-13.789-27.834-18.232-42.656c-1.269-4.232,1.134-8.692,5.365-9.96c4.234-1.269,8.692,1.133,9.961,5.365
				c4.448,14.838,10.728,29.146,18.661,42.525c1.268,2.138,1.47,4.744,0.547,7.052l-18.013,45.031
				C63.997,408.924,60.992,410.827,57.817,410.827z"/>
		</g>
		<g>
			<path fill="#78D2F0" d="M248.001,464C247.999,464,248.001,464,248.001,464c-7.375,0-14.813-0.391-22.111-1.163
				c-4.394-0.465-7.578-4.403-7.114-8.797c0.466-4.393,4.403-7.576,8.798-7.114C234.313,447.638,241.187,448,248,448
				c22.548,0,44.637-3.89,65.653-11.561c4.153-1.515,8.743,0.622,10.258,4.772c1.516,4.15-0.621,8.743-4.771,10.258
				C296.361,459.783,272.425,464,248.001,464z M349.463,436.309c-2.736,0-5.401-1.404-6.895-3.931
				c-2.248-3.804-0.987-8.709,2.816-10.958c25.055-14.809,46.794-35.479,62.867-59.777c2.436-3.685,7.397-4.697,11.086-2.259
				c3.685,2.438,4.696,7.401,2.258,11.086c-17.402,26.307-40.94,48.688-68.07,64.723
				C352.248,435.95,350.846,436.309,349.463,436.309z M432.233,341.827c-1.041,0-2.1-0.205-3.119-0.637
				c-4.067-1.725-5.967-6.42-4.242-10.488C434.91,307.027,440,281.894,440,256c-0.001-3.568-0.101-7.175-0.297-10.718
				c-0.243-4.411,3.136-8.185,7.547-8.429c4.415-0.247,8.185,3.135,8.43,7.547c0.211,3.834,0.319,7.737,0.32,11.598
				c0,28.053-5.517,55.288-16.397,80.95C438.311,339.996,435.349,341.827,432.233,341.827z M49.146,285.618
				c-4.034,0-7.503-3.043-7.944-7.145C40.404,271.06,40,263.499,40,256c0-24.309,4.177-48.135,12.414-70.816
				c1.508-4.152,6.098-6.298,10.25-4.788c4.153,1.508,6.297,6.098,4.789,10.25C59.854,211.571,56,233.559,56,256
				c0,6.93,0.374,13.915,1.11,20.762c0.473,4.393-2.705,8.337-7.099,8.81C49.722,285.603,49.433,285.618,49.146,285.618z
				 M442.333,216.661c-3.604,0-6.875-2.451-7.766-6.108c-6.868-28.193-20.393-54.952-39.111-77.384
				c-2.831-3.392-2.375-8.437,1.017-11.268c3.393-2.83,8.437-2.376,11.269,1.017c20.275,24.299,34.928,53.293,42.371,83.848
				c1.046,4.293-1.586,8.62-5.879,9.666C443.598,216.586,442.96,216.661,442.333,216.661z M75.523,162.82
				c-1.379,0-2.777-0.357-4.052-1.108c-3.808-2.242-5.076-7.146-2.834-10.953c15.991-27.154,38.336-50.729,64.617-68.174
				c3.684-2.444,8.646-1.44,11.09,2.241c2.443,3.681,1.44,8.646-2.241,11.09c-24.273,16.113-44.91,37.885-59.679,62.963
				C80.934,161.41,78.265,162.82,75.523,162.82z M375.703,110.193c-1.804,0-3.617-0.606-5.111-1.85
				c-22.463-18.683-49.244-32.164-77.451-38.986c-4.294-1.039-6.934-5.362-5.895-9.656c1.038-4.295,5.357-6.934,9.656-5.895
				c30.569,7.394,59.589,21.999,83.92,42.236c3.397,2.825,3.86,7.87,1.035,11.266C380.275,109.211,377.997,110.193,375.703,110.193z
				 M169.878,79.893c-3.11,0-6.068-1.825-7.364-4.867c-1.731-4.065,0.16-8.764,4.226-10.495C192.49,53.562,219.83,48,248,48
				c3.743,0,7.53,0.101,11.258,0.301c4.411,0.237,7.796,4.005,7.56,8.417c-0.236,4.412-3.976,7.795-8.417,7.56
				C254.958,64.094,251.458,64,248,64c-26.003,0-51.233,5.131-74.991,15.251C171.986,79.687,170.923,79.893,169.878,79.893z"/>
		</g>
		<g>
			<path fill="#78D2F0" d="M190.517,455.612c-0.761,0-1.534-0.109-2.3-0.339c-14.82-4.443-29.151-10.569-42.655-18.232
				l-41.416,16.566c-4.102,1.642-8.758-0.355-10.398-4.457c-1.641-4.102,0.354-8.758,4.457-10.399l45.031-18.012
				c2.307-0.922,4.911-0.722,7.052,0.547c13.38,7.935,27.688,14.214,42.523,18.661c4.232,1.269,6.635,5.728,5.366,9.96
				C197.138,453.373,193.958,455.612,190.517,455.612z"/>
		</g>
		<g>
			<path fill="#78D2F0" d="M28.921,483.081c-2.083,0-4.129-0.814-5.659-2.343c-2.263-2.263-2.959-5.657-1.771-8.628l18.013-45.031
				c1.641-4.101,6.297-6.098,10.398-4.457c4.103,1.641,6.098,6.297,4.457,10.399l-11.08,27.7l27.7-11.08
				c4.103-1.641,8.759,0.355,10.398,4.457c1.641,4.102-0.354,8.758-4.457,10.399L31.89,482.509
				C30.927,482.894,29.92,483.081,28.921,483.081z"/>
		</g>
	</g>
	<g>
		<path fill="#64AFE1" d="M248,80c-97.202,0-176,78.798-176,176c0,36.84,11.336,71.021,30.686,99.285L72,432l76.714-30.686
			C176.979,420.664,211.161,432,248,432c97.202,0,176-78.798,176-176S345.202,80,248,80z"/>
	</g>
</g>
</svg>
