<?xml version="1.0" encoding="utf-8"?>
<!-- Generator: Adobe Illustrator 24.0.0, SVG Export Plug-In . SVG Version: 6.00 Build 0)  -->
<svg version="1.1" id="Layer_1" xmlns="http://www.w3.org/2000/svg" xmlns:xlink="http://www.w3.org/1999/xlink" x="0px" y="0px"
	 viewBox="0 0 512 512" enable-background="new 0 0 512 512" xml:space="preserve">
<g>
	<g>
		<path fill="#4182C3" d="M473.951,293.264c2.216-12.086,3.383-24.538,3.383-37.264c0-113.402-91.931-205.333-205.333-205.333
			c-5.337,0-26.566,0-32,0c-9.614,0-19.066,0.683-28.328,1.964C196.21,44.572,178.642,40,160,40c-5.428,0-26.562,0-32,0
			C66.144,40,16,90.144,16,152c0,25.007,8.198,48.097,22.049,66.736c-2.216,12.086-3.383,24.538-3.383,37.264
			c0,113.402,91.931,205.333,205.333,205.333c5.337,0,26.566,0,32,0c9.614,0,19.066-0.683,28.328-1.964
			C315.79,467.428,333.358,472,352,472c5.428,0,26.562,0,32,0c61.856,0,112-50.144,112-112
			C496,334.993,487.802,311.903,473.951,293.264z"/>
	</g>
	<g>
		<path fill="#64AFE1" d="M441.951,293.264c2.216-12.086,3.383-24.538,3.383-37.264c0-113.402-91.931-205.333-205.333-205.333
			c-18.007,0-35.469,2.326-52.111,6.68C170.567,46.364,150.028,40,128,40C66.144,40,16,90.144,16,152
			c0,25.007,8.198,48.097,22.049,66.736c-2.216,12.086-3.383,24.538-3.383,37.264c0,113.402,91.931,205.333,205.333,205.333
			c18.007,0,35.469-2.326,52.111-6.679C309.433,465.636,329.972,472,352,472c61.856,0,112-50.144,112-112
			C464,334.993,455.802,311.903,441.951,293.264z"/>
	</g>
	<g>
		<path fill="#D7E6F0" d="M264,400h-24c-36.864,0-71.365-14.5-97.147-40.828c-9.274-9.47-9.115-24.666,0.355-33.939
			c9.471-9.273,24.665-9.114,33.939,0.355C193.826,342.62,216.148,352,240,352h24c17.645,0,32-14.355,32-32
			c0-16.413-11.681-30.661-27.774-33.879l-65.864-13.173C163.909,265.257,136,231.214,136,192c0-44.112,35.888-80,80-80h24
			c36.864,0,71.365,14.5,97.147,40.828c9.274,9.47,9.115,24.666-0.355,33.939c-9.47,9.273-24.665,9.114-33.939-0.355
			C286.174,169.38,263.852,160,240,160h-24c-17.645,0-32,14.355-32,32c0,16.413,11.681,30.661,27.774,33.879l65.864,13.173
			C316.091,246.743,344,280.786,344,320C344,364.112,308.112,400,264,400z"/>
	</g>
</g>
</svg>
