<?xml version="1.0" encoding="utf-8"?>
<!-- Generator: Adobe Illustrator 24.0.0, SVG Export Plug-In . SVG Version: 6.00 Build 0)  -->
<svg version="1.1" id="Layer_1" xmlns="http://www.w3.org/2000/svg" xmlns:xlink="http://www.w3.org/1999/xlink" x="0px" y="0px"
	 viewBox="0 0 512 512" enable-background="new 0 0 512 512" xml:space="preserve">
<g>
	<g>
		<path fill="#FAA019" d="M384,464H160c-53.019,0-96-42.981-96-96V144c0-53.019,42.981-96,96-96h224c53.019,0,96,42.981,96,96v224
			C480,421.019,437.019,464,384,464z"/>
	</g>
	<g>
		<path fill="#FFD205" d="M352,464H128c-53.019,0-96-42.981-96-96V144c0-53.019,42.981-96,96-96h224c53.019,0,96,42.981,96,96v224
			C448,421.019,405.019,464,352,464z"/>
	</g>
	<g>
		<path fill="#D7E6F0" d="M392,336c-39.764,0-72-32.235-72-72v-1.347l36.35-14.136c6.177-2.402,9.236-9.356,6.834-15.533
			c-2.4-6.177-9.355-9.237-15.533-6.835L320,236.902V192c0-44.183-35.817-80-80-80l0,0c-44.183,0-80,35.817-80,80v44.902
			l-27.651-10.753c-6.176-2.401-13.131,0.658-15.533,6.835c-2.402,6.177,0.658,13.131,6.835,15.533L160,262.653V264
			c0,39.765-32.235,72-72,72h0l6.627,6.627c6.001,6.001,14.14,9.373,22.627,9.373H128v16h25.373c14.488,0,28.383,5.755,38.627,16
			l0,0c10.245,10.245,24.139,16,38.627,16h18.745c14.488,0,28.383-5.755,38.627-16l0,0c10.245-10.245,24.139-16,38.627-16H352v-16
			h10.745c8.487,0,16.626-3.372,22.627-9.373L392,336L392,336z"/>
		<path fill="#555A6E" d="M249.373,404h-18.745c-15.66,0-30.383-6.098-41.456-17.171C179.609,377.266,166.896,372,153.373,372H128
			c-2.209,0-4-1.791-4-4v-12h-6.745c-9.615,0-18.656-3.745-25.456-10.544l-6.628-6.627c-1.144-1.144-1.486-2.865-0.867-4.359
			S86.382,332,88,332c37.033,0,67.247-29.756,67.986-66.616l-33.785-13.139c-8.223-3.197-12.311-12.488-9.113-20.711
			c3.198-8.222,12.49-12.309,20.711-9.113L156,231.055V192c0-46.318,37.682-84,84-84c46.317,0,84,37.682,84,84v39.055l22.2-8.634
			c3.985-1.549,8.333-1.453,12.244,0.267c3.912,1.721,6.92,4.863,8.468,8.847c1.549,3.982,1.454,8.33-0.267,12.242
			c-1.722,3.912-4.863,6.919-8.847,8.468l-33.785,13.139C324.753,302.244,354.967,332,392,332c1.618,0,3.076,0.975,3.695,2.469
			s0.277,3.215-0.867,4.359l-6.627,6.627C381.4,352.255,372.36,356,362.745,356H356v12c0,2.209-1.791,4-4,4h-25.373
			c-13.523,0-26.236,5.266-35.799,14.828C279.756,397.902,265.033,404,249.373,404z M132,364h21.373
			c15.66,0,30.383,6.098,41.456,17.171c9.562,9.563,22.276,14.829,35.799,14.829h18.745c13.524,0,26.237-5.266,35.799-14.828
			C296.244,370.098,310.967,364,326.627,364H348v-12c0-2.209,1.791-4,4-4h10.745c7.479,0,14.51-2.913,19.8-8.201l0.342-0.342
			C345.263,334.939,316,302.822,316,264v-1.347c0-1.65,1.013-3.13,2.55-3.728l36.35-14.136c1.992-0.774,3.563-2.278,4.423-4.234
			c0.86-1.956,0.908-4.13,0.134-6.122c-0.774-1.992-2.277-3.563-4.233-4.423c-1.957-0.861-4.131-0.908-6.123-0.134L321.45,240.63
			c-1.23,0.478-2.619,0.32-3.709-0.427c-1.09-0.746-1.741-1.981-1.741-3.301V192c0-41.907-34.094-76-76-76
			c-41.907,0-76,34.093-76,76v44.902c0,1.32-0.652,2.556-1.742,3.301c-1.089,0.746-2.476,0.906-3.708,0.427l-27.651-10.753
			c-4.113-1.6-8.757,0.446-10.355,4.557c-0.774,1.992-0.727,4.166,0.134,6.122c0.86,1.956,2.431,3.459,4.423,4.234l36.349,14.136
			c1.538,0.598,2.55,2.078,2.55,3.728V264c0,38.822-29.262,70.939-66.887,75.457l0.343,0.342c5.289,5.289,12.32,8.201,19.799,8.201
			H128c2.209,0,4,1.791,4,4V364z"/>
	</g>
</g>
</svg>
