<?xml version="1.0" encoding="utf-8"?>
<!-- Generator: Adobe Illustrator 24.0.0, SVG Export Plug-In . SVG Version: 6.00 Build 0)  -->
<svg version="1.1" id="Layer_1" xmlns="http://www.w3.org/2000/svg" xmlns:xlink="http://www.w3.org/1999/xlink" x="0px" y="0px"
	 viewBox="0 0 512 512" enable-background="new 0 0 512 512" xml:space="preserve">
<g>
	<g>
		<path fill="#F06423" d="M264,352h-32c-4.418,0-8-3.582-8-8V184c0-4.418,3.582-8,8-8h32c4.418,0,8,3.582,8,8v160
			C272,348.418,268.418,352,264,352z"/>
	</g>
	<g>
		<path fill="#F06423" d="M232,352h-32c-4.418,0-8-3.582-8-8V208c0-4.418,3.582-8,8-8h32c4.418,0,8,3.582,8,8v136
			C240,348.418,236.418,352,232,352z"/>
	</g>
	<g>
		<path fill="#F06423" d="M200,352h-32c-4.418,0-8-3.582-8-8V200c0-4.418,3.582-8,8-8h32c4.418,0,8,3.582,8,8v144
			C208,348.418,204.418,352,200,352z"/>
	</g>
	<g>
		<path fill="#F06423" d="M168,352h-32c-4.418,0-8-3.582-8-8V208c0-4.418,3.582-8,8-8h32c4.418,0,8,3.582,8,8v136
			C176,348.418,172.418,352,168,352z"/>
	</g>
	<g>
		<path fill="#F06423" d="M136,352h-32c-4.418,0-8-3.582-8-8V232c0-4.418,3.582-8,8-8h32c4.418,0,8,3.582,8,8v112
			C144,348.418,140.418,352,136,352z"/>
	</g>
	<g>
		<path fill="#F06423" d="M104,352H72c-4.418,0-8-3.582-8-8v-80c0-4.418,3.582-8,8-8h32c4.418,0,8,3.582,8,8v80
			C112,348.418,108.418,352,104,352z"/>
	</g>
	<g>
		<path fill="#F06423" d="M72,344H40c-4.418,0-8-3.582-8-8v-72c0-4.418,3.582-8,8-8h32c4.418,0,8,3.582,8,8v72
			C80,340.418,76.418,344,72,344z"/>
	</g>
	<g>
		<path fill="#F06423" d="M40,336H8c-4.418,0-8-3.582-8-8v-48c0-4.418,3.582-8,8-8h32c4.418,0,8,3.582,8,8v48
			C48,332.418,44.418,336,40,336z"/>
	</g>
	<g>
		<path fill="#F06423" d="M440,240h-20.964c-9.798-45.71-50.403-80-99.036-80h-32c-11.18,0-21.94,1.81-32,5.16V352h184
			c30.928,0,56-25.072,56-56S470.928,240,440,240z"/>
	</g>
	<g>
		<path fill="#FAA019" d="M408,240c-7.12,0-13.923,1.343-20.188,3.766c-0.001-0.005-0.001-0.01-0.002-0.016
			C379.49,196.17,337.96,160,288,160c-11.18,0-21.94,1.81-32,5.16V352h152c30.928,0,56-25.072,56-56S438.928,240,408,240z"/>
	</g>
	<g>
		<path fill="#FAA019" d="M232,352L232,352c-4.418,0-8-3.582-8-8V184c0-4.418,3.582-8,8-8h0c4.418,0,8,3.582,8,8v160
			C240,348.418,236.418,352,232,352z"/>
	</g>
	<g>
		<path fill="#FAA019" d="M200,352L200,352c-4.418,0-8-3.582-8-8V208c0-4.418,3.582-8,8-8h0c4.418,0,8,3.582,8,8v136
			C208,348.418,204.418,352,200,352z"/>
	</g>
	<g>
		<path fill="#FAA019" d="M168,352L168,352c-4.418,0-8-3.582-8-8V200c0-4.418,3.582-8,8-8h0c4.418,0,8,3.582,8,8v144
			C176,348.418,172.418,352,168,352z"/>
	</g>
	<g>
		<path fill="#FAA019" d="M136,352L136,352c-4.418,0-8-3.582-8-8V208c0-4.418,3.582-8,8-8h0c4.418,0,8,3.582,8,8v136
			C144,348.418,140.418,352,136,352z"/>
	</g>
	<g>
		<path fill="#FAA019" d="M104,352L104,352c-4.418,0-8-3.582-8-8V232c0-4.418,3.582-8,8-8h0c4.418,0,8,3.582,8,8v112
			C112,348.418,108.418,352,104,352z"/>
	</g>
	<g>
		<path fill="#FAA019" d="M72,352L72,352c-4.418,0-8-3.582-8-8v-80c0-4.418,3.582-8,8-8h0c4.418,0,8,3.582,8,8v80
			C80,348.418,76.418,352,72,352z"/>
	</g>
	<g>
		<path fill="#FAA019" d="M40,344L40,344c-4.418,0-8-3.582-8-8v-72c0-4.418,3.582-8,8-8h0c4.418,0,8,3.582,8,8v72
			C48,340.418,44.418,344,40,344z"/>
	</g>
	<g>
		<path fill="#FAA019" d="M8,336L8,336c-4.418,0-8-3.582-8-8v-48c0-4.418,3.582-8,8-8h0c4.418,0,8,3.582,8,8v48
			C16,332.418,12.418,336,8,336z"/>
	</g>
</g>
</svg>
