<?xml version="1.0" encoding="utf-8"?>
<!-- Generator: Adobe Illustrator 24.0.0, SVG Export Plug-In . SVG Version: 6.00 Build 0)  -->
<svg version="1.1" id="Layer_1" xmlns="http://www.w3.org/2000/svg" xmlns:xlink="http://www.w3.org/1999/xlink" x="0px" y="0px"
	 viewBox="0 0 512 512" enable-background="new 0 0 512 512" xml:space="preserve">
<g>
	<g>
		<path fill="#5FAA46" d="M272,480h-32C116.288,480,16,379.712,16,256v0C16,132.288,116.288,32,240,32h32
			c123.712,0,224,100.288,224,224v0C496,379.712,395.712,480,272,480z"/>
	</g>
	<g>
		<circle fill="#91C83C" cx="240" cy="256" r="224"/>
	</g>
	<g>
		<g>
			<path fill="#555A6E" d="M335.663,371.068c-3.148,0-6.342-0.745-9.32-2.317c-29.673-15.665-61.779-25.508-95.426-29.256
				c-33.648-3.747-67.133-1.211-99.525,7.54c-10.667,2.88-21.644-3.428-24.524-14.092c-2.881-10.663,3.428-21.643,14.091-24.524
				c37.252-10.064,75.736-12.983,114.385-8.679c38.649,4.305,75.548,15.622,109.672,33.636c9.768,5.157,13.506,17.256,8.35,27.024
				C349.782,367.192,342.841,371.068,335.663,371.068z"/>
		</g>
		<g>
			<path fill="#555A6E" d="M363.315,304.31c-3.031,0-6.106-0.691-8.996-2.15c-36.04-18.19-74.876-29.704-115.431-34.222
				c-40.556-4.517-80.974-1.831-120.132,7.982c-10.715,2.685-21.577-3.823-24.262-14.538c-2.686-10.714,3.823-21.577,14.538-24.262
				c43.797-10.977,88.978-13.985,134.285-8.937c45.307,5.047,88.718,17.921,129.026,38.266c9.861,4.977,13.82,17.006,8.843,26.866
				C377.667,300.288,370.624,304.309,363.315,304.31z"/>
		</g>
		<g>
			<path fill="#555A6E" d="M390.938,237.618c-2.95,0-5.944-0.655-8.772-2.038c-42.387-20.731-87.911-33.919-135.308-39.199
				c-47.396-5.279-94.707-2.432-140.618,8.464c-10.749,2.552-21.527-4.094-24.078-14.841s4.094-21.527,14.841-24.078
				c50.396-11.96,102.304-15.089,154.282-9.299c51.979,5.79,101.925,20.264,148.454,43.02c9.922,4.853,14.032,16.831,9.179,26.753
				C405.45,233.495,398.337,237.617,390.938,237.618z"/>
		</g>
	</g>
</g>
</svg>
