<?xml version="1.0" encoding="utf-8"?>
<!-- Generator: Adobe Illustrator 24.0.0, SVG Export Plug-In . SVG Version: 6.00 Build 0)  -->
<svg version="1.1" id="Layer_1" xmlns="http://www.w3.org/2000/svg" xmlns:xlink="http://www.w3.org/1999/xlink" x="0px" y="0px"
	 viewBox="0 0 512 512" enable-background="new 0 0 512 512" xml:space="preserve">
<g>
	<g>
		<path fill="#2364A5" d="M272,480h-32C116.288,480,16,379.712,16,256v0C16,132.288,116.288,32,240,32h32
			c123.712,0,224,100.288,224,224v0C496,379.712,395.712,480,272,480z"/>
	</g>
	<g>
		<circle fill="#4182C3" cx="240" cy="256" r="224"/>
	</g>
	<g>
		<path fill="#D7E6F0" d="M312,112c-48.601,0-88,39.399-88,88c0,0.727,0.01,1.452,0.028,2.175l-51.942,77.968
			C170.733,280.058,169.374,280,168,280c-15.112,0-28.99,5.25-39.939,14.009L16.074,250.188C16.025,252.119,16,254.057,16,256
			c0,23.286,3.553,45.742,10.147,66.855l78.572,30.746C109.351,384.392,135.917,408,168,408c35.346,0,64-28.654,64-64
			c0-1.374-0.058-2.733-0.143-4.086l77.968-51.941C310.548,287.99,311.273,288,312,288c48.601,0,88-39.399,88-88
			S360.601,112,312,112z M168,392c-20.614,0-38.187-12.997-44.987-31.241l33.326,13.041c3.83,1.499,7.773,2.209,11.652,2.209
			c12.788,0,24.867-7.72,29.808-20.348c6.44-16.458-1.681-35.021-18.139-41.46l-33.313-13.036C152.855,297.869,160.207,296,168,296
			c26.51,0,48,21.49,48,48S194.51,392,168,392z M312,256c-30.928,0-56-25.072-56-56s25.072-56,56-56s56,25.072,56,56
			S342.928,256,312,256z"/>
		<circle fill="#D7E6F0" cx="312" cy="200" r="40"/>
	</g>
</g>
</svg>
