<?xml version="1.0" encoding="utf-8"?>
<!-- Generator: Adobe Illustrator 24.0.0, SVG Export Plug-In . SVG Version: 6.00 Build 0)  -->
<svg version="1.1" id="Layer_1" xmlns="http://www.w3.org/2000/svg" xmlns:xlink="http://www.w3.org/1999/xlink" x="0px" y="0px"
	 viewBox="0 0 512 512" enable-background="new 0 0 512 512" xml:space="preserve">
<g>
	<g>
		<path fill="#4182C3" d="M272,480h-32C116.288,480,16,379.712,16,256v0C16,132.288,116.288,32,240,32h32
			c123.712,0,224,100.288,224,224v0C496,379.712,395.712,480,272,480z"/>
	</g>
	<g>
		<circle fill="#64AFE1" cx="240" cy="256" r="224"/>
	</g>
	<g>
		<path fill="#D7E6F0" d="M350.952,147.519L91.65,244.758c-11.006,4.127-11.362,19.565-0.558,24.196l61.431,26.328l129.088-86.058
			c3.276-2.184,6.898,2.233,4.114,5.018l-94.081,94.081v65.201l39.12-39.12l62.281,51.9c7.386,6.155,18.667,2.473,20.999-6.855
			l54.139-216.555C370.73,152.697,360.791,143.83,350.952,147.519z"/>
	</g>
</g>
</svg>
