<?xml version="1.0" encoding="utf-8"?>
<!-- Generator: Adobe Illustrator 24.0.0, SVG Export Plug-In . SVG Version: 6.00 Build 0)  -->
<svg version="1.1" id="Layer_1" xmlns="http://www.w3.org/2000/svg" xmlns:xlink="http://www.w3.org/1999/xlink" x="0px" y="0px"
	 viewBox="0 0 512 512" enable-background="new 0 0 512 512" xml:space="preserve">
<g>
	<path fill="#F04B37" d="M456.566,135.738c-51.265-3.639-92.667-45.04-96.304-96.305c-0.297-4.188-3.781-7.434-7.98-7.434H256
		c-4.418,0-8,3.582-8,8v296c0,28.981-20.078,54.753-48,61.976c-27.922-7.223-48-32.994-48-61.976c0-35.29,28.71-64,64-64
		c4.814,0,9.601,0.533,14.229,1.584c2.372,0.537,4.86-0.031,6.763-1.55c1.901-1.518,3.009-3.819,3.009-6.252v-64.851
		c0-4.059-3.04-7.475-7.071-7.946C227.336,192.332,221.64,192,216,192h-32c-79.402,0-144,64.598-144,144s64.598,144,144,144h32
		c79.402,0,144-64.598,144-144V201.394c20.126,8.587,41.479,13.43,63.643,14.42c0.179,0.007,0.359,0.01,0.541,0.006
		c0.208-0.004,21.002-0.475,31.459-0.006c2.179,0.087,4.308-0.701,5.887-2.21c1.578-1.51,2.471-3.599,2.471-5.782v-64.104
		C464,139.52,460.754,136.035,456.566,135.738z"/>
	<g>
		<path fill="#D7E6F0" d="M184,472c-74.991,0-136-61.01-136-136s61.009-136,136-136c5.348,0,10.706,0.313,16,0.932v64.851
			c-5.216-1.185-10.566-1.782-16-1.782c-39.701,0-72,32.299-72,72s32.299,72,72,72s72-32.299,72-72V40h64.283
			c3.93,55.392,48.326,99.787,103.717,103.718v64.104c-32.855-1.468-64.326-11.974-91.473-30.607L320,168.615V336
			C320,410.99,258.991,472,184,472z"/>
		<path fill="#5AD7FF" d="M184,480c-79.402,0-144-64.598-144-144s64.598-144,144-144c5.64,0,11.336,0.332,16.929,0.985
			c4.031,0.472,7.071,3.888,7.071,7.946v64.851c0,2.433-1.107,4.734-3.009,6.252c-1.902,1.519-4.392,2.087-6.763,1.55
			C193.601,272.533,188.814,272,184,272c-35.29,0-64,28.71-64,64s28.71,64,64,64s64-28.71,64-64V40c0-4.418,3.582-8,8-8h64.283
			c4.199,0,7.683,3.246,7.98,7.434c3.637,51.265,45.039,92.666,96.304,96.305c4.188,0.297,7.434,3.781,7.434,7.979v64.104
			c0,2.184-0.893,4.272-2.471,5.781c-1.578,1.51-3.712,2.304-5.886,2.211c-34.301-1.532-67.374-12.6-95.643-32.004V336
			C328,415.402,263.402,480,184,480z M184,208c-70.58,0-128,57.421-128,128s57.42,128,128,128s128-57.421,128-128V168.615
			c0-2.97,1.645-5.695,4.273-7.079c2.626-1.384,5.805-1.197,8.254,0.483l12.527,8.599c23.499,16.13,50.636,25.948,78.945,28.629
			v-48.313c-25.926-3.485-50.131-15.438-68.813-34.121C328.504,98.131,316.551,73.926,313.065,48H264v288c0,44.112-35.888,80-80,80
			s-80-35.888-80-80s35.888-80,80-80c2.677,0,5.348,0.133,8,0.396v-48.148C189.333,208.083,186.66,208,184,208z"/>
	</g>
</g>
</svg>
