<?xml version="1.0" encoding="utf-8"?>
<!-- Generator: Adobe Illustrator 24.0.0, SVG Export Plug-In . SVG Version: 6.00 Build 0)  -->
<svg version="1.1" id="Layer_1" xmlns="http://www.w3.org/2000/svg" xmlns:xlink="http://www.w3.org/1999/xlink" x="0px" y="0px"
	 viewBox="0 0 512 512" enable-background="new 0 0 512 512" xml:space="preserve">
<g>
	<path fill="#F04B37" d="M426.241,128.308c-34.033-44.739-82.33-78.024-135.995-93.722c-0.762-0.224-1.564-0.346-2.347-0.321
		c-12.993,0.163-27.54,0.243-30.558,0.111c-0.437-0.074-0.885-0.112-1.342-0.112c-4.418,0-8,3.582-8,8V112
		c0,42.011-25.833,80.058-64,96.025V126.58c0-4.418-3.582-8-8-8c-0.997,0-1.951,0.183-2.831,0.516
		c-3.973,0.3-17.538-0.007-28.814-0.508c-1.647-0.066-3.298,0.37-4.693,1.271c-57.632,37.207-91.897,100.328-91.66,168.848
		c0.185,53.438,21.035,103.542,58.709,141.081C144.383,467.327,194.562,488,248.001,488h32C390.281,488,480,398.28,480,288
		C480,229.761,461.411,174.54,426.241,128.308z"/>
	<path fill="#F5826E" d="M394.241,128.308c-34.033-44.739-82.33-78.024-135.995-93.722c-2.417-0.71-5.027-0.234-7.044,1.275
		c-2.016,1.511-3.202,3.883-3.202,6.402V112c0,54.654-42.378,99.597-96,103.695V126.58c0-2.93-1.601-5.624-4.174-7.025
		c-2.57-1.401-5.705-1.285-8.165,0.305c-57.632,37.207-91.897,100.328-91.66,168.848c0.185,53.438,21.035,103.541,58.709,141.081
		C144.383,467.326,194.562,488,248.001,488C358.281,488,448,398.28,448,288C448,229.761,429.411,174.54,394.241,128.308z"/>
</g>
</svg>
