<?xml version="1.0" encoding="utf-8"?>
<!-- Generator: Adobe Illustrator 24.0.0, SVG Export Plug-In . SVG Version: 6.00 Build 0)  -->
<svg version="1.1" id="Layer_1" xmlns="http://www.w3.org/2000/svg" xmlns:xlink="http://www.w3.org/1999/xlink" x="0px" y="0px"
	 viewBox="0 0 512 512" enable-background="new 0 0 512 512" xml:space="preserve">
<g>
	<path fill="#5FAA46" d="M472,131.292L280,20.441c-2.433-1.404-5.191-2.144-8-2.144h-32c-2.809,0-5.567,0.739-8,2.144L40,131.292
		c-4.95,2.858-8,8.14-8,13.856v221.702c0,5.716,3.05,10.998,8,13.856l192,110.851c2.433,1.404,5.191,2.144,8,2.144h32
		c2.809,0,5.567-0.739,8-2.144l192-110.851c4.95-2.858,8-8.14,8-13.856V145.149C480,139.432,476.95,134.15,472,131.292z"/>
	<path fill="#91C83C" d="M440,131.292L248,20.441c-4.951-2.858-11.049-2.858-16,0L40,131.292c-4.95,2.858-8,8.14-8,13.856v221.703
		c0,5.716,3.05,10.998,8,13.856l192,110.851c2.476,1.429,5.237,2.144,8,2.144s5.524-0.715,8-2.144l192-110.851
		c4.95-2.858,8-8.14,8-13.856V145.149C448,139.432,444.95,134.15,440,131.292z"/>
	<g>
		<path fill="#D7E6F0" d="M372.37,92.246l-55.433-32.004l-53.655,89.425c-11.477,19.128-31.172,31.857-53.327,34.463l-50.065,5.89
			c-4.943-4.372-11.697-6.743-18.998-5.824c-10.868,1.367-19.543,10.193-20.741,21.081C118.557,219.751,129.848,232,144,232
			c8.116,0,15.286-4.033,19.629-10.199l61.792-7.27l-68.777,50.835c-3.617-1.173-7.553-1.641-11.652-1.207
			c-13.501,1.428-24.163,12.629-24.944,26.183C119.113,306.558,131.987,320,148,320c15.464,0,28-12.536,28-28
			c0-0.378-0.014-0.753-0.029-1.127l69.813-51.6l-35.353,97.22c-15.705,2.757-27.469,16.956-26.359,33.69
			c1.049,15.813,13.842,28.646,29.652,29.739C232.427,401.214,248,386.426,248,368c0-7.835-2.82-15.008-7.494-20.571l25.485-70.083
			c4.699-12.921,22.43-14.29,29.056-2.243l11.58,21.055c-2.146,4.589-3.092,9.851-2.407,15.389
			c1.574,12.734,11.903,22.904,24.659,24.284C345.741,337.654,360,324.492,360,308c0-14.683-11.304-26.718-25.683-27.897
			l-15.766-28.664c-12.348-22.45-11.834-49.772,1.348-71.742L372.37,92.246z"/>
	</g>
</g>
</svg>
