<?xml version="1.0" encoding="utf-8"?>
<!-- Generator: Adobe Illustrator 24.0.0, SVG Export Plug-In . SVG Version: 6.00 Build 0)  -->
<svg version="1.1" id="Layer_1" xmlns="http://www.w3.org/2000/svg" xmlns:xlink="http://www.w3.org/1999/xlink" x="0px" y="0px"
	 viewBox="0 0 512 512" enable-background="new 0 0 512 512" xml:space="preserve">
<g>
	<g>
		<path fill="#4182C3" d="M440,464H104c-22.091,0-40-17.909-40-40V88c0-22.091,17.909-40,40-40h336c22.091,0,40,17.909,40,40v336
			C480,446.091,462.091,464,440,464z"/>
	</g>
	<g>
		<path fill="#64AFE1" d="M408,464H72c-22.091,0-40-17.909-40-40V88c0-22.091,17.909-40,40-40h336c22.091,0,40,17.909,40,40v336
			C448,446.091,430.091,464,408,464z"/>
	</g>
	<g>
		<path fill="#D7E6F0" d="M200,384h-96c-8.837,0-16-7.163-16-16V120c0-8.837,7.163-16,16-16h96c8.837,0,16,7.163,16,16v248
			C216,376.837,208.837,384,200,384z"/>
	</g>
	<g>
		<path fill="#D7E6F0" d="M376,280h-96c-8.837,0-16-7.163-16-16V120c0-8.837,7.163-16,16-16h96c8.837,0,16,7.163,16,16v144
			C392,272.837,384.837,280,376,280z"/>
	</g>
</g>
</svg>
