<?xml version="1.0" encoding="utf-8"?>
<!-- Generator: Adobe Illustrator 24.0.0, SVG Export Plug-In . SVG Version: 6.00 Build 0)  -->
<svg version="1.1" id="Layer_1" xmlns="http://www.w3.org/2000/svg" xmlns:xlink="http://www.w3.org/1999/xlink" x="0px" y="0px"
	 viewBox="0 0 512 512" enable-background="new 0 0 512 512" xml:space="preserve">
<g>
	<path fill="#A5C3DC" d="M344,24H168C88.598,24,24,88.598,24,168v112c0,61.523,38.89,115.693,96,135.809V472c0,8.837,7.164,16,16,16
		h32c4.244,0,8.313-1.686,11.314-4.686L238.627,424H344c79.402,0,144-64.598,144-144V168C488,88.598,423.402,24,344,24z"/>
	<g>
		<path fill="#804B8F" d="M312,40H168C97.308,40,40,97.308,40,168v112c0,59.643,40.793,109.758,96,123.967V472l64-64h112
			c70.692,0,128-57.308,128-128V168C440,97.308,382.692,40,312,40z"/>
		<path fill="#D7E6F0" d="M135.997,488c-2.062,0-4.14-0.398-6.12-1.218C123.898,484.306,120,478.471,120,472v-56.191
			C62.89,395.693,24,341.523,24,280V168C24,88.598,88.598,24,168,24h144c79.402,0,144,64.598,144,144v112
			c0,79.402-64.598,144-144,144H206.627l-59.313,59.314C144.253,486.375,140.16,488,135.997,488z M168,56
			c-61.757,0-112,50.243-112,112v112c0,51.139,34.537,95.744,83.988,108.472c7.07,1.82,12.012,8.194,12.012,15.495v29.405
			l36.686-36.686c3.001-3.001,7.07-4.686,11.314-4.686h112c61.757,0,112-50.243,112-112V168c0-61.757-50.243-112-112-112H168z"/>
	</g>
	<g>
		<g>
			<path fill="#D7E6F0" d="M303.774,346.448l30.175-30.175c4.675-4.675,4.675-12.254,0-16.929l-42.323-42.323
				c-4.675-4.675-12.254-4.675-16.929,0l-16.929,16.929c-33.859-11.286-56.431-33.858-67.717-67.717l16.929-16.929
				c4.675-4.675,4.675-12.254,0-16.929l-42.323-42.323c-4.675-4.675-12.254-4.675-16.929,0l-30.175,30.175
				c-7.424,7.424-9.112,18.818-4.279,28.138c36.962,71.279,91.082,125.4,162.362,162.362
				C284.956,355.56,296.35,353.872,303.774,346.448z"/>
		</g>
		<g>
			<g>
				<path fill="#D7E6F0" d="M296,220c-2.209,0-4-1.791-4-4c0-24.262-19.738-44-44-44c-2.209,0-4-1.791-4-4s1.791-4,4-4
					c28.673,0,52,23.327,52,52C300,218.209,298.209,220,296,220z"/>
			</g>
			<g>
				<path fill="#D7E6F0" d="M328,220c-2.209,0-4-1.791-4-4c0-41.906-34.093-76-76-76c-2.209,0-4-1.791-4-4s1.791-4,4-4
					c46.318,0,84,37.682,84,84C332,218.209,330.209,220,328,220z"/>
			</g>
			<g>
				<path fill="#D7E6F0" d="M360,220c-2.209,0-4-1.791-4-4c0-59.551-48.449-108-108-108c-2.209,0-4-1.791-4-4s1.791-4,4-4
					c63.962,0,116,52.037,116,116C364,218.209,362.209,220,360,220z"/>
			</g>
		</g>
	</g>
</g>
</svg>
