<?xml version="1.0" encoding="utf-8"?>
<!-- Generator: Adobe Illustrator 24.0.0, SVG Export Plug-In . SVG Version: 6.00 Build 0)  -->
<svg version="1.1" id="Layer_1" xmlns="http://www.w3.org/2000/svg" xmlns:xlink="http://www.w3.org/1999/xlink" x="0px" y="0px"
	 viewBox="0 0 512 512" enable-background="new 0 0 512 512" xml:space="preserve">
<g>
	<path fill="#4182C3" d="M478.495,89.927l-104-48c-2.036-0.94-4.252-1.427-6.495-1.427h-32c-3.885,0-7.628,1.458-10.487,4.087
		L168.658,188.723l-55.415-41.166c-2.673-1.985-5.914-3.058-9.243-3.058H72c-3.354,0-6.617,1.088-9.3,3.1l-32,24
		c-3.687,2.765-5.951,7.026-6.181,11.628s1.6,9.067,4.993,12.185L95.445,256l-65.933,60.587c-3.394,3.118-5.223,7.583-4.993,12.185
		s2.494,8.863,6.181,11.628l32,24c2.683,2.012,5.946,3.1,9.3,3.1h32c3.329,0,6.57-1.072,9.243-3.058l55.415-41.166l156.854,144.136
		c2.859,2.628,6.603,4.087,10.487,4.087h32c2.243,0,4.459-0.487,6.495-1.427l104-48c5.489-2.533,9.005-8.027,9.005-14.073V104
		C487.5,97.954,483.984,92.46,478.495,89.927z M336.5,198.594v114.812L259.223,256L336.5,198.594z"/>
	<path fill="#64AFE1" d="M446.495,89.927l-104-48c-5.677-2.621-12.376-1.573-16.982,2.66L154.354,201.868l-73.11-54.311
		c-5.51-4.093-13.053-4.075-18.543,0.042l-32,24c-3.687,2.765-5.951,7.026-6.181,11.628s1.6,9.067,4.993,12.185L95.445,256
		l-65.933,60.587c-3.394,3.118-5.223,7.583-4.993,12.185s2.494,8.863,6.181,11.628l32,24c5.49,4.118,13.034,4.134,18.543,0.042
		l73.11-54.311l171.159,157.281c2.92,2.684,6.681,4.087,10.49,4.087c2.199,0,4.414-0.468,6.492-1.427l104-48
		c5.489-2.533,9.005-8.027,9.005-14.073V104C455.5,97.954,451.984,92.46,446.495,89.927z M336.5,174.823v162.354L227.223,256
		L336.5,174.823z"/>
</g>
</svg>
