<?xml version="1.0" encoding="utf-8"?>
<!-- Generator: Adobe Illustrator 24.0.0, SVG Export Plug-In . SVG Version: 6.00 Build 0)  -->
<svg version="1.1" id="Layer_1" xmlns="http://www.w3.org/2000/svg" xmlns:xlink="http://www.w3.org/1999/xlink" x="0px" y="0px"
	 viewBox="0 0 512 512" enable-background="new 0 0 512 512" xml:space="preserve">
<g>
	<path fill="#418C28" d="M216,64c-5.398,0-26.602,0-32,0C91.216,64,16,124.889,16,200c0,44.897,26.881,84.708,68.318,109.475
		l-11.474,22.947c-1.24,2.48-1.107,5.425,0.35,7.784C74.652,342.564,77.228,344,80,344h32c1.45,0,2.873-0.394,4.116-1.14
		l20.568-12.341C151.693,334.081,167.568,336,184,336c5.406,0,26.611,0,32,0c92.784,0,168-60.889,168-136S308.784,64,216,64z"/>
	<path fill="#5FAA46" d="M184,64C91.216,64,16,124.889,16,200c0,44.897,26.881,84.708,68.318,109.475l-11.474,22.947
		c-1.591,3.181-0.89,7.031,1.72,9.447c1.518,1.406,3.47,2.13,5.438,2.13c1.415,0,2.838-0.375,4.114-1.14l31.192-18.715
		C136.279,331.76,159.527,336,184,336c92.784,0,168-60.889,168-136S276.784,64,184,64z"/>
	<path fill="#5FAA46" d="M496,312c0-61.856-62.68-112-140-112h-32c-77.32,0-140,50.144-140,112s62.68,112,140,112h32
		c7.858,0,15.562-0.526,23.068-1.522l33.355,16.677c1.111,0.556,2.335,0.845,3.578,0.845h32c2.95,0,5.661-1.624,7.053-4.225
		c1.393-2.601,1.24-5.758-0.397-8.212l-16.56-24.84C473.178,382.37,496,349.32,496,312z"/>
	<path fill="#91C83C" d="M464,312c0-61.856-62.68-112-140-112s-140,50.144-140,112s62.68,112,140,112
		c16.05,0,31.465-2.167,45.823-6.145l42.599,21.3c1.139,0.57,2.362,0.845,3.575,0.845c2.241,0,4.442-0.941,6-2.706
		c2.4-2.719,2.671-6.714,0.659-9.732l-16.56-24.84C441.178,382.37,464,349.319,464,312z"/>
	<g>
		<circle fill="#D7E6F0" cx="128" cy="144" r="24"/>
	</g>
	<g>
		<circle fill="#D7E6F0" cx="240" cy="144" r="24"/>
	</g>
	<g>
		<circle fill="#D7E6F0" cx="284" cy="284" r="20"/>
	</g>
	<g>
		<circle fill="#D7E6F0" cx="364" cy="284" r="20"/>
	</g>
</g>
</svg>
