<?xml version="1.0" encoding="utf-8"?>
<!-- Generator: Adobe Illustrator 24.0.0, SVG Export Plug-In . SVG Version: 6.00 Build 0)  -->
<svg version="1.1" id="Layer_1" xmlns="http://www.w3.org/2000/svg" xmlns:xlink="http://www.w3.org/1999/xlink" x="0px" y="0px"
	 viewBox="0 0 512 512" enable-background="new 0 0 512 512" xml:space="preserve">
<g>
	<path fill="#4182C3" d="M272,32h-32C116.288,32,16,132.288,16,256s100.288,224,224,224h32c123.712,0,224-100.288,224-224
		S395.712,32,272,32z M256,56.637c43.567,3.449,83.202,20.86,114.437,47.756c-18.489,2.576-33.04,17.934-34.339,36.786
		c-0.664,9.622,2.139,19.143,7.892,26.81c15.708,20.932,24.01,44.895,24.01,69.297v45.479l-11.867,37.579L296.535,160H320
		c4.418,0,8-3.582,8-8s-3.582-8-8-8H184c-4.418,0-8,3.582-8,8s3.582,8,8,8h16.003c0,0.939,0.162,1.883,0.498,2.787l33.189,89.295
		l-21.557,68.263L152.535,160H168c4.418,0,8-3.582,8-8s-3.582-8-8-8h-61.708C139.442,95.054,193.699,61.57,256,56.637z M72,256
		c0-13.863,1.424-27.391,4.109-40.458l73.958,198.983C102.594,377.959,72,320.557,72,256z M256,455.363
		c-12.274-0.972-24.232-3.064-35.783-6.151l12.579-39.833l4.882-15.459c0-0.001,0-0.002,0.001-0.002l22.383-70.881l45.347,122.004
		C289.731,450.463,273.173,454.003,256,455.363z M380.188,398.638l35.441-112.229c0.001-0.002,0.001-0.005,0.002-0.007
		l20.353-64.448c0.243-0.769,0.47-1.541,0.706-2.311C438.855,231.435,440,243.583,440,256
		C440,311.852,417.105,362.354,380.188,398.638z"/>
	<path fill="#64AFE1" d="M240,32C116.288,32,16,132.288,16,256s100.288,224,224,224s224-100.288,224-224S363.712,32,240,32z M240,56
		c49.841,0,95.419,18.236,130.439,48.393c-18.49,2.575-33.042,17.934-34.341,36.787c-0.664,9.622,2.139,19.143,7.892,26.81
		c15.708,20.932,24.01,44.895,24.01,69.297v45.479l-26.566,84.126L264.535,160H288c4.418,0,8-3.582,8-8s-3.582-8-8-8H184
		c-4.418,0-8,3.582-8,8s3.582,8,8,8h16.003c0,0.939,0.162,1.883,0.498,2.787l33.189,89.295l-36.256,114.81L120.535,160H136
		c4.418,0,8-3.582,8-8s-3.582-8-8-8H74.28C110.237,90.9,171.042,56,240,56z M40,256c0-30.69,6.922-59.761,19.275-85.75
		l99.879,268.722C88.973,407.917,40,337.682,40,256z M188.216,449.216l12.581-39.838l4.882-15.459c0-0.001,0-0.002,0.001-0.002
		l37.083-117.428l62.65,168.558C284.914,452.137,262.909,456,240,456C222.089,456,204.734,453.632,188.216,449.216z
		 M338.204,430.256l45.425-143.846c0.001-0.002,0.001-0.005,0.002-0.007l20.353-64.448c6.362-20.146,10.214-40.917,11.512-61.939
		C431.113,188.508,440,221.215,440,256C440,330.765,398.969,395.937,338.204,430.256z"/>
</g>
</svg>
