<?xml version="1.0" encoding="utf-8"?>
<!-- Generator: Adobe Illustrator 24.0.0, SVG Export Plug-In . SVG Version: 6.00 Build 0)  -->
<svg version="1.1" id="Layer_1" xmlns="http://www.w3.org/2000/svg" xmlns:xlink="http://www.w3.org/1999/xlink" x="0px" y="0px"
	 viewBox="0 0 512 512" enable-background="new 0 0 512 512" xml:space="preserve">
<g>
	<g>
		<path fill="#4182C3" d="M272,480h-32C116.288,480,16,379.712,16,256v0C16,132.288,116.288,32,240,32h32
			c123.712,0,224,100.288,224,224v0C496,379.712,395.712,480,272,480z"/>
	</g>
	<g>
		<circle fill="#64AFE1" cx="240" cy="256" r="224"/>
	</g>
	<g>
		<path fill="#D7E6F0" d="M240,176H104c-4.418,0-8,3.582-8,8v96c0,30.878,25.121,56,56,56h136c4.418,0,8-3.582,8-8v-96
			C296,201.122,270.879,176,240,176z"/>
		<path fill="#D7E6F0" d="M379.343,176.732c-2.841-1.306-6.178-0.838-8.549,1.194l-56,48c-1.773,1.52-2.794,3.739-2.794,6.074v48
			c0,2.335,1.021,4.554,2.794,6.074l56,48c1.479,1.268,3.333,1.926,5.208,1.926c1.132,0,2.272-0.24,3.341-0.732
			c2.839-1.306,4.657-4.144,4.657-7.268V184C384,180.876,382.182,178.038,379.343,176.732z"/>
	</g>
</g>
</svg>
